<svg width="60" height="60" viewBox="0 0 60 60" fill="none" xmlns="http://www.w3.org/2000/svg">
<rect x="30" y="29" width="28" height="28" transform="rotate(-180 30 29)" fill="black"/>
<rect x="11.3333" y="24.3333" width="4.66667" height="4.66667" transform="rotate(-180 11.3333 24.3333)" fill="white"/>
<rect x="16" y="24.3333" width="4.66667" height="4.66667" transform="rotate(-180 16 24.3333)" fill="white"/>
<rect x="16" y="19.6667" width="4.66667" height="4.66667" transform="rotate(-180 16 19.6667)" fill="white"/>
<rect x="25.3333" y="15" width="4.66667" height="4.66667" transform="rotate(-180 25.3333 15)" fill="white"/>
<rect x="20.6667" y="10.3333" width="4.66667" height="4.66667" transform="rotate(-180 20.6667 10.3333)" fill="white"/>
<rect x="25.3333" y="10.3333" width="4.66667" height="4.66667" transform="rotate(-180 25.3333 10.3333)" fill="white"/>
<rect x="31" y="2" width="28" height="28" fill="black"/>
<rect x="49.6667" y="6.66669" width="4.66667" height="4.66667" fill="white"/>
<rect x="45" y="6.66669" width="4.66667" height="4.66667" fill="white"/>
<rect x="45" y="11.3333" width="4.66667" height="4.66667" fill="white"/>
<rect x="35.6667" y="16" width="4.66667" height="4.66667" fill="white"/>
<rect x="40.3333" y="20.6667" width="4.66667" height="4.66667" fill="white"/>
<rect x="35.6667" y="20.6667" width="4.66667" height="4.66667" fill="white"/>
<rect x="1" y="30" width="28" height="28" fill="black"/>
<rect x="19.6667" y="34.6667" width="4.66667" height="4.66667" fill="white"/>
<rect x="15" y="34.6667" width="4.66667" height="4.66667" fill="white"/>
<rect x="15" y="39.3333" width="4.66667" height="4.66667" fill="white"/>
<rect x="5.66669" y="44" width="4.66667" height="4.66667" fill="white"/>
<rect x="10.3333" y="48.6667" width="4.66667" height="4.66667" fill="white"/>
<rect x="5.66669" y="48.6667" width="4.66667" height="4.66667" fill="white"/>
<rect x="30" y="59" width="28" height="28" transform="rotate(-90 30 59)" fill="black"/>
<rect x="33.6667" y="40.3333" width="4.66667" height="4.66667" transform="rotate(-90 33.6667 40.3333)" fill="white"/>
<rect x="33.6667" y="45" width="4.66667" height="4.66667" transform="rotate(-90 33.6667 45)" fill="white"/>
<rect x="38.3333" y="45" width="4.66667" height="4.66667" transform="rotate(-90 38.3333 45)" fill="white"/>
<rect x="43" y="54.3333" width="4.66667" height="4.66667" transform="rotate(-90 43 54.3333)" fill="white"/>
<rect x="47.6667" y="49.6667" width="4.66667" height="4.66667" transform="rotate(-90 47.6667 49.6667)" fill="white"/>
<rect x="47.6667" y="54.3333" width="4.66667" height="4.66667" transform="rotate(-90 47.6667 54.3333)" fill="white"/>
</svg>
