<svg width="100" height="100" viewBox="0 0 100 100" fill="none" xmlns="http://www.w3.org/2000/svg">
<g filter="url(#filter0_i_8_190)">
<rect x="40" y="32" width="20" height="55" fill="url(#paint0_linear_8_190)"/>
</g>
<rect x="39" y="19" width="22" height="13" fill="#C1C1C1"/>
<rect x="48" y="15" width="5" height="4" fill="#DBDBDB"/>
<rect x="50" y="11" width="1" height="4" fill="#DBDBDB"/>
<mask id="mask0_8_190" style="mask-type:alpha" maskUnits="userSpaceOnUse" x="40" y="32" width="20" height="55">
<rect x="40" y="32" width="20" height="55" fill="url(#paint1_linear_8_190)"/>
</mask>
<g mask="url(#mask0_8_190)">
<path d="M50.0998 48.8646C54.1305 48.8646 57.398 45.5159 57.398 41.3851C57.398 37.2543 54.1305 33.9056 50.0998 33.9056C46.0691 33.9056 42.8016 37.2543 42.8016 41.3851C42.8016 45.5159 46.0691 48.8646 50.0998 48.8646Z" fill="#0B3D91"/>
<path d="M51.8305 39.5935C50.982 39.9315 50.1544 40.2332 49.456 40.4571C48.0369 40.9125 44.1542 42.1453 41.8087 43.6994L42.0051 43.7776C43.4342 42.9503 44.3631 42.6904 45.256 42.4025C46.2269 42.0894 49.3656 41.3366 50.7869 40.9267C51.2671 40.7883 51.8294 40.607 52.4251 40.3863C52.2865 40.1883 52.1404 39.9896 51.9865 39.7914C51.9351 39.7245 51.8829 39.6585 51.8305 39.5935ZM52.8673 41.0579C52.6618 41.2001 52.4896 41.3135 52.3691 41.3851C51.6709 41.7988 48.2671 44.1801 47.4927 44.728C46.7184 45.2758 44.5691 47.3553 43.9364 47.959L43.9145 48.2048C45.9545 46.3265 46.5945 45.8633 47.4054 45.2311C48.4091 44.4485 50.4853 43.0006 51.1909 42.5366C51.8654 42.0932 52.4738 41.6853 53.0198 41.3121C53.0109 41.2968 53.002 41.2815 52.9931 41.266C52.952 41.1969 52.91 41.1276 52.8673 41.0579ZM56.0562 37.6062C55.0624 38.2032 53.496 38.9238 51.9764 39.5352C52.0127 39.5808 52.0489 39.6268 52.0849 39.6732C52.2547 39.8924 52.4149 40.113 52.5656 40.3338C53.7602 39.8829 55.0709 39.2776 56.1109 38.5452C55.6154 39.0263 53.9774 40.2809 52.9787 40.9802C53.0302 41.0661 53.08 41.152 53.1282 41.2375C54.6413 40.1998 55.6594 39.436 56.2527 38.9253C57.0709 38.2209 58.9364 36.6445 59.6454 34.5315C58.4016 36.1528 56.9311 37.0806 56.0562 37.6062Z" fill="#FC3D21"/>
<path d="M49.1607 43.2371C48.9998 43.0295 48.7773 42.7515 48.6102 42.5359C48.3867 42.2476 48.18 41.9564 47.9905 41.6655C47.9287 41.6814 47.8671 41.6972 47.8054 41.713C48.0342 42.0788 48.2882 42.444 48.5649 42.801C48.7671 43.0619 48.9509 43.2719 49.0451 43.4025C49.0642 43.429 49.102 43.4875 49.1531 43.5654C49.212 43.5244 49.2714 43.483 49.3314 43.4413C49.2734 43.3766 49.2162 43.3086 49.1607 43.2371ZM50.3353 44.3297C50.2031 44.2015 49.8825 43.9874 49.5489 43.6662C49.4753 43.718 49.4009 43.7705 49.3263 43.8235C49.5418 44.1346 49.8353 44.5168 50.0651 44.6283C50.4113 44.7963 50.5045 44.4941 50.3353 44.3297ZM52.0849 39.6732C50.1773 37.2125 47.8469 35.8606 46.8422 36.6788C46.0618 37.3142 46.3822 39.1712 47.4578 41.122C47.5134 41.1024 47.5685 41.0832 47.6231 41.0642C46.5374 39.1636 46.2403 37.3973 46.9763 36.7979C47.9013 36.0447 50.1345 37.4018 51.9869 39.7912C52.3703 40.2857 52.7074 40.7821 52.9929 41.266C54.086 43.1201 54.4214 44.7967 53.6662 45.4811C53.4351 45.6906 52.7289 45.7727 51.8038 45.346C51.7909 45.3626 51.8116 45.4075 51.8278 45.4185C52.6263 45.7476 53.3913 45.873 53.7774 45.5586C54.7054 44.8028 53.9925 42.134 52.0849 39.6732Z" fill="white"/>
<path d="M43.9034 39.9652H45.1253L46.1507 41.7484C46.1507 41.7484 46.1507 40.4571 46.1507 40.3565C46.1507 40.2 45.9571 39.996 45.8889 39.9652C45.9707 39.9652 46.6853 39.9652 46.7344 39.9652C46.6825 39.9792 46.5162 40.186 46.5162 40.3565C46.5162 40.4404 46.5162 42.313 46.5162 42.4025C46.5162 42.5283 46.6934 42.7015 46.778 42.7686H45.5998L44.558 40.977C44.558 40.977 44.558 42.313 44.558 42.3857C44.558 42.5255 44.6916 42.6596 44.8307 42.7742H43.9307C44.0589 42.7183 44.1816 42.5422 44.1925 42.4025C44.2034 42.2627 44.1925 40.4599 44.1925 40.3817C44.1925 40.2112 44.0316 40.0714 43.9034 39.9652Z" fill="white"/>
<path d="M55.0798 42.7686H56.7053C56.6153 42.7463 56.5143 42.6373 56.4598 42.4919C56.4053 42.3466 55.5434 39.9652 55.5434 39.9652H54.9254C54.7502 40.0945 54.5623 40.2309 54.3618 40.3746C54.3613 40.3798 54.3607 40.385 54.3598 40.3901C54.3329 40.5578 53.8493 42.3529 53.8198 42.4416C53.7789 42.5646 53.5689 42.7015 53.4843 42.7742H54.3598C54.2725 42.6736 54.2016 42.5758 54.218 42.464C54.2343 42.3522 54.2834 42.1286 54.2834 42.1286H55.1889C55.2298 42.2404 55.2603 42.3408 55.2762 42.436C55.2953 42.5506 55.1807 42.6792 55.0798 42.7686ZM54.3653 41.7708L54.6707 40.7478L55.0743 41.7708H54.3653ZM54.2276 40.0673C54.2725 40.0334 54.3176 39.9993 54.3625 39.9652H54.1253C54.1489 39.9876 54.188 40.0228 54.2276 40.0673Z" fill="white"/>
<path d="M48.0107 42.464C48.0271 42.3522 48.0762 42.1286 48.0762 42.1286H48.9816C49.0225 42.2404 49.0531 42.3408 49.0689 42.436C49.088 42.5506 48.9734 42.6792 48.8725 42.7686H50.3036C50.3334 42.7481 50.3631 42.7276 50.3927 42.7073C50.3373 42.657 50.2862 42.5815 50.2525 42.4919C50.198 42.3466 49.3362 39.9652 49.3362 39.9652H47.918C47.9862 40.0295 48.1825 40.2028 48.1525 40.3901C48.1258 40.5578 47.642 42.3529 47.6125 42.4416C47.5716 42.5646 47.3616 42.7015 47.2771 42.7742H48.1525C48.0653 42.6736 47.9943 42.5758 48.0107 42.464ZM48.4634 40.7478L48.8671 41.7708H48.158L48.4634 40.7478Z" fill="white"/>
<path d="M52.9542 41.3568C52.6873 41.539 52.4056 41.7293 52.1089 41.9279C52.242 41.994 52.348 42.0771 52.3582 42.1845C52.3771 42.3861 51.9818 42.4835 51.6245 42.4416C51.5531 42.4332 51.4829 42.414 51.416 42.3883C51.3418 42.4373 51.2669 42.4867 51.1909 42.5366C51.1136 42.5875 51.0198 42.6501 50.9127 42.7224V43.0118C50.9836 42.8693 51.1387 42.7416 51.2591 42.7351C51.3109 42.7323 51.4909 42.9028 52.2327 42.8609C52.5927 42.8406 53.2882 42.4472 53.2773 41.9944C53.2707 41.7268 53.1344 41.5181 52.9542 41.3568ZM50.9125 42.0559V42.3507C50.9782 42.3058 51.0429 42.2616 51.1064 42.2186C51.0065 42.1474 50.9358 42.0809 50.9125 42.0559ZM52.7005 41.1717C52.6314 41.1298 52.5614 41.0931 52.4944 41.0607C52.1453 40.893 51.7798 40.8622 51.7034 40.6358C51.6496 40.4762 51.8016 40.3284 52.1725 40.334C52.5434 40.3396 52.8871 40.566 52.9798 40.647V39.9259C52.9525 39.9539 52.8329 40.0945 52.7234 40.0712C52.5134 40.0265 52.1562 39.9682 51.7471 39.9706C51.278 39.9734 50.8744 40.345 50.8607 40.8147C50.8416 41.4716 51.3544 41.6504 51.6434 41.7539C51.6733 41.7645 51.7073 41.7758 51.7442 41.788C52.0214 41.6031 52.2407 41.4607 52.3691 41.3849C52.4553 41.334 52.5682 41.261 52.7005 41.1717Z" fill="white"/>
</g>
<defs>
<filter id="filter0_i_8_190" x="40" y="32" width="20" height="59" filterUnits="userSpaceOnUse" color-interpolation-filters="sRGB">
<feFlood flood-opacity="0" result="BackgroundImageFix"/>
<feBlend mode="normal" in="SourceGraphic" in2="BackgroundImageFix" result="shape"/>
<feColorMatrix in="SourceAlpha" type="matrix" values="0 0 0 0 0 0 0 0 0 0 0 0 0 0 0 0 0 0 127 0" result="hardAlpha"/>
<feOffset dy="4"/>
<feGaussianBlur stdDeviation="2"/>
<feComposite in2="hardAlpha" operator="arithmetic" k2="-1" k3="1"/>
<feColorMatrix type="matrix" values="0 0 0 0 0 0 0 0 0 0 0 0 0 0 0 0 0 0 0.25 0"/>
<feBlend mode="normal" in2="shape" result="effect1_innerShadow_8_190"/>
</filter>
<linearGradient id="paint0_linear_8_190" x1="60" y1="60.5" x2="36.5" y2="60.5" gradientUnits="userSpaceOnUse">
<stop stop-color="#57AEFF"/>
<stop offset="1" stop-color="#0059AB"/>
</linearGradient>
<linearGradient id="paint1_linear_8_190" x1="60" y1="60.5" x2="36.5" y2="60.5" gradientUnits="userSpaceOnUse">
<stop stop-color="#57AEFF"/>
<stop offset="1" stop-color="#0085FF" stop-opacity="0.84"/>
</linearGradient>
</defs>
</svg>
