<svg width="125" height="125" viewBox="0 0 125 125" fill="none" xmlns="http://www.w3.org/2000/svg">
<rect x="56" y="29" width="15" height="72" fill="#FFA825"/>
<rect x="56" y="29" width="8" height="72" fill="#FF9900"/>
<rect x="56" y="29" width="7" height="72" fill="#FD8D26"/>
<mask id="mask0_8_44" style="mask-type:alpha" maskUnits="userSpaceOnUse" x="56" y="64" width="15" height="37">
<rect x="56" y="64" width="15" height="37" fill="#FFA825"/>
</mask>
<g mask="url(#mask0_8_44)">
<path d="M51.3536 67.6465L77.3536 93.6465" stroke="#BD6729" stroke-width="0.5"/>
<path d="M51.3536 70.6465L77.3536 96.6465" stroke="#BD6729" stroke-width="0.5"/>
<path d="M51.3536 73.6465L77.3536 99.6465" stroke="#BD6729" stroke-width="0.5"/>
<path d="M51.3536 76.6465L77.3536 102.646" stroke="#BD6729" stroke-width="0.5"/>
<path d="M51.3536 79.6465L77.3536 105.646" stroke="#BD6729" stroke-width="0.5"/>
<path d="M51.3536 82.6465L77.3536 108.646" stroke="#BD6729" stroke-width="0.5"/>
<path d="M51.3536 85.6465L77.3536 111.646" stroke="#BD6729" stroke-width="0.5"/>
<path d="M51.3536 88.6465L77.3536 114.646" stroke="#BD6729" stroke-width="0.5"/>
<path d="M51.3536 43.6465L77.3536 69.6465" stroke="#BD6729" stroke-width="0.5"/>
<path d="M51.3536 46.6465L77.3536 72.6465" stroke="#BD6729" stroke-width="0.5"/>
<path d="M51.3536 49.6465L77.3536 75.6465" stroke="#BD6729" stroke-width="0.5"/>
<path d="M51.3536 52.6465L77.3536 78.6465" stroke="#BD6729" stroke-width="0.5"/>
<path d="M51.3536 55.6465L77.3536 81.6465" stroke="#BD6729" stroke-width="0.5"/>
<path d="M51.3536 58.6465L77.3536 84.6465" stroke="#BD6729" stroke-width="0.5"/>
<path d="M51.3536 61.6465L77.3536 87.6465" stroke="#BD6729" stroke-width="0.5"/>
<path d="M51.3536 64.6465L77.3536 90.6465" stroke="#BD6729" stroke-width="0.5"/>
<path d="M76.6465 67.6465L50.6465 93.6465" stroke="#BD6729" stroke-width="0.5"/>
<path d="M76.6465 70.6465L50.6465 96.6465" stroke="#BD6729" stroke-width="0.5"/>
<path d="M76.6465 73.6465L50.6465 99.6465" stroke="#BD6729" stroke-width="0.5"/>
<path d="M76.6465 76.6465L50.6465 102.646" stroke="#BD6729" stroke-width="0.5"/>
<path d="M76.6465 79.6465L50.6465 105.646" stroke="#BD6729" stroke-width="0.5"/>
<path d="M76.6465 82.6465L50.6465 108.646" stroke="#BD6729" stroke-width="0.5"/>
<path d="M76.6465 85.6465L50.6465 111.646" stroke="#BD6729" stroke-width="0.5"/>
<path d="M76.6465 88.6465L50.6465 114.646" stroke="#BD6729" stroke-width="0.5"/>
<path d="M76.6465 43.6465L50.6465 69.6465" stroke="#BD6729" stroke-width="0.5"/>
<path d="M76.6465 46.6465L50.6465 72.6465" stroke="#BD6729" stroke-width="0.5"/>
<path d="M76.6465 49.6465L50.6465 75.6465" stroke="#BD6729" stroke-width="0.5"/>
<path d="M76.6465 52.6465L50.6465 78.6465" stroke="#BD6729" stroke-width="0.5"/>
<path d="M76.6465 55.6465L50.6465 81.6465" stroke="#BD6729" stroke-width="0.5"/>
<path d="M76.6465 58.6465L50.6465 84.6465" stroke="#BD6729" stroke-width="0.5"/>
<path d="M76.6465 61.6465L50.6465 87.6465" stroke="#BD6729" stroke-width="0.5"/>
<path d="M76.6465 64.6465L50.6465 90.6465" stroke="#BD6729" stroke-width="0.5"/>
</g>
<rect x="55" y="96" width="17" height="11" fill="#FFA825"/>
<g filter="url(#filter0_i_8_44)">
<rect x="65" y="98" width="6" height="5" fill="#EF8F00"/>
</g>
<rect x="55" y="96" width="9" height="11" fill="#FF9900"/>
<rect x="55" y="96" width="8" height="11" fill="#FD8D26"/>
<g filter="url(#filter1_i_8_44)">
<mask id="mask1_8_44" style="mask-type:alpha" maskUnits="userSpaceOnUse" x="72" y="17" width="11" height="15">
<rect x="72" y="17" width="11" height="15" fill="#D9D9D9"/>
</mask>
<g mask="url(#mask1_8_44)">
<circle cx="76.5" cy="24.5" r="7.5" fill="#FF9D2B"/>
</g>
<rect x="47" y="17" width="29" height="15" fill="#FF9D2B"/>
<g filter="url(#filter2_i_8_44)">
<rect x="58" y="20" width="19" height="9" fill="#FF9D2B"/>
</g>
</g>
<mask id="mask2_8_44" style="mask-type:alpha" maskUnits="userSpaceOnUse" x="42" y="17" width="11" height="15">
<rect x="42" y="17" width="11" height="15" fill="#D9D9D9"/>
</mask>
<g mask="url(#mask2_8_44)">
<circle cx="47.5" cy="24.5" r="7.5" fill="#FD8D26"/>
</g>
<g filter="url(#filter3_d_8_44)">
<mask id="path-47-outside-1_8_44" maskUnits="userSpaceOnUse" x="61" y="22" width="12" height="6" fill="black">
<rect fill="white" x="61" y="22" width="12" height="6"/>
<path d="M63.022 27.078C62.474 27.078 62.06 26.962 61.78 26.73C61.5 26.494 61.36 26.168 61.36 25.752V22.8H62.206V25.752C62.206 26.196 62.478 26.418 63.022 26.418C63.566 26.418 63.838 26.196 63.838 25.752V22.8H64.684V25.752C64.684 26.168 64.544 26.494 64.264 26.73C63.984 26.962 63.57 27.078 63.022 27.078ZM68.955 27H68.061L67.785 26.07C67.729 25.878 67.673 25.73 67.617 25.626C67.561 25.518 67.485 25.436 67.389 25.38C67.293 25.324 67.165 25.296 67.005 25.296H66.399V27H65.553V22.8H67.251C67.763 22.8 68.141 22.902 68.385 23.106C68.629 23.306 68.751 23.62 68.751 24.048C68.751 24.324 68.677 24.546 68.529 24.714C68.385 24.882 68.185 24.99 67.929 25.038C68.133 25.106 68.287 25.224 68.391 25.392C68.495 25.56 68.591 25.788 68.679 26.076L68.955 27ZM67.275 24.636C67.459 24.636 67.609 24.588 67.725 24.492C67.845 24.392 67.905 24.244 67.905 24.048C67.905 23.852 67.845 23.706 67.725 23.61C67.609 23.51 67.459 23.46 67.275 23.46H66.399V24.636H67.275ZM71.1968 27.072C70.6328 27.072 70.2028 26.944 69.9068 26.688C69.6108 26.428 69.4628 26.046 69.4628 25.542V24.258C69.4628 23.754 69.6108 23.374 69.9068 23.118C70.2028 22.858 70.6328 22.728 71.1968 22.728C71.5888 22.728 71.9088 22.794 72.1568 22.926C72.4088 23.054 72.6088 23.248 72.7568 23.508L72.1508 23.928C72.0268 23.736 71.8968 23.598 71.7608 23.514C71.6288 23.43 71.4408 23.388 71.1968 23.388C70.8888 23.388 70.6628 23.462 70.5188 23.61C70.3788 23.754 70.3088 23.97 70.3088 24.258V25.542C70.3088 25.83 70.3788 26.048 70.5188 26.196C70.6628 26.34 70.8888 26.412 71.1968 26.412C71.4608 26.412 71.6648 26.368 71.8088 26.28C71.9568 26.188 72.0888 26.042 72.2048 25.842L72.8048 26.286C72.6768 26.47 72.5448 26.618 72.4088 26.73C72.2728 26.842 72.1068 26.928 71.9108 26.988C71.7188 27.044 71.4808 27.072 71.1968 27.072Z"/>
</mask>
<path d="M63.022 27.078C62.474 27.078 62.06 26.962 61.78 26.73C61.5 26.494 61.36 26.168 61.36 25.752V22.8H62.206V25.752C62.206 26.196 62.478 26.418 63.022 26.418C63.566 26.418 63.838 26.196 63.838 25.752V22.8H64.684V25.752C64.684 26.168 64.544 26.494 64.264 26.73C63.984 26.962 63.57 27.078 63.022 27.078ZM68.955 27H68.061L67.785 26.07C67.729 25.878 67.673 25.73 67.617 25.626C67.561 25.518 67.485 25.436 67.389 25.38C67.293 25.324 67.165 25.296 67.005 25.296H66.399V27H65.553V22.8H67.251C67.763 22.8 68.141 22.902 68.385 23.106C68.629 23.306 68.751 23.62 68.751 24.048C68.751 24.324 68.677 24.546 68.529 24.714C68.385 24.882 68.185 24.99 67.929 25.038C68.133 25.106 68.287 25.224 68.391 25.392C68.495 25.56 68.591 25.788 68.679 26.076L68.955 27ZM67.275 24.636C67.459 24.636 67.609 24.588 67.725 24.492C67.845 24.392 67.905 24.244 67.905 24.048C67.905 23.852 67.845 23.706 67.725 23.61C67.609 23.51 67.459 23.46 67.275 23.46H66.399V24.636H67.275ZM71.1968 27.072C70.6328 27.072 70.2028 26.944 69.9068 26.688C69.6108 26.428 69.4628 26.046 69.4628 25.542V24.258C69.4628 23.754 69.6108 23.374 69.9068 23.118C70.2028 22.858 70.6328 22.728 71.1968 22.728C71.5888 22.728 71.9088 22.794 72.1568 22.926C72.4088 23.054 72.6088 23.248 72.7568 23.508L72.1508 23.928C72.0268 23.736 71.8968 23.598 71.7608 23.514C71.6288 23.43 71.4408 23.388 71.1968 23.388C70.8888 23.388 70.6628 23.462 70.5188 23.61C70.3788 23.754 70.3088 23.97 70.3088 24.258V25.542C70.3088 25.83 70.3788 26.048 70.5188 26.196C70.6628 26.34 70.8888 26.412 71.1968 26.412C71.4608 26.412 71.6648 26.368 71.8088 26.28C71.9568 26.188 72.0888 26.042 72.2048 25.842L72.8048 26.286C72.6768 26.47 72.5448 26.618 72.4088 26.73C72.2728 26.842 72.1068 26.928 71.9108 26.988C71.7188 27.044 71.4808 27.072 71.1968 27.072Z" fill="black"/>
<path d="M61.78 26.73L61.7156 26.8065L61.7162 26.807L61.78 26.73ZM61.36 22.8V22.7H61.26V22.8H61.36ZM62.206 22.8H62.306V22.7H62.206V22.8ZM63.838 22.8V22.7H63.738V22.8H63.838ZM64.684 22.8H64.784V22.7H64.684V22.8ZM64.264 26.73L64.3278 26.807L64.3284 26.8065L64.264 26.73ZM63.022 26.978C62.486 26.978 62.0987 26.8642 61.8438 26.653L61.7162 26.807C62.0213 27.0598 62.462 27.178 63.022 27.178V26.978ZM61.8444 26.6535C61.5902 26.4393 61.46 26.143 61.46 25.752H61.26C61.26 26.193 61.4098 26.5487 61.7156 26.8065L61.8444 26.6535ZM61.46 25.752V22.8H61.26V25.752H61.46ZM61.36 22.9H62.206V22.7H61.36V22.9ZM62.106 22.8V25.752H62.306V22.8H62.106ZM62.106 25.752C62.106 25.9954 62.1815 26.1941 62.3468 26.329C62.5081 26.4607 62.739 26.518 63.022 26.518V26.318C62.761 26.318 62.5839 26.2643 62.4732 26.174C62.3665 26.0869 62.306 25.9526 62.306 25.752H62.106ZM63.022 26.518C63.305 26.518 63.5359 26.4607 63.6972 26.329C63.8625 26.1941 63.938 25.9954 63.938 25.752H63.738C63.738 25.9526 63.6775 26.0869 63.5708 26.174C63.4601 26.2643 63.283 26.318 63.022 26.318V26.518ZM63.938 25.752V22.8H63.738V25.752H63.938ZM63.838 22.9H64.684V22.7H63.838V22.9ZM64.584 22.8V25.752H64.784V22.8H64.584ZM64.584 25.752C64.584 26.143 64.4538 26.4393 64.1996 26.6535L64.3284 26.8065C64.6342 26.5487 64.784 26.193 64.784 25.752H64.584ZM64.2002 26.653C63.9453 26.8642 63.558 26.978 63.022 26.978V27.178C63.582 27.178 64.0227 27.0598 64.3278 26.807L64.2002 26.653ZM68.955 27V27.1H69.0892L69.0508 26.9714L68.955 27ZM68.061 27L67.9651 27.0285L67.9863 27.1H68.061V27ZM67.785 26.07L67.689 26.098L67.6891 26.0985L67.785 26.07ZM67.617 25.626L67.5282 25.672L67.5289 25.6734L67.617 25.626ZM67.389 25.38L67.4394 25.2936L67.4394 25.2936L67.389 25.38ZM66.399 25.296V25.196H66.299V25.296H66.399ZM66.399 27V27.1H66.499V27H66.399ZM65.553 27H65.453V27.1H65.553V27ZM65.553 22.8V22.7H65.453V22.8H65.553ZM68.385 23.106L68.3208 23.1827L68.3216 23.1833L68.385 23.106ZM68.529 24.714L68.4539 24.6479L68.453 24.6489L68.529 24.714ZM67.929 25.038L67.9105 24.9397L67.5312 25.0108L67.8973 25.1329L67.929 25.038ZM68.679 26.076L68.7748 26.0474L68.7746 26.0468L68.679 26.076ZM67.725 24.492L67.7887 24.569L67.789 24.5688L67.725 24.492ZM67.725 23.61L67.6596 23.6858L67.6625 23.6881L67.725 23.61ZM66.399 23.46V23.36H66.299V23.46H66.399ZM66.399 24.636H66.299V24.736H66.399V24.636ZM68.955 26.9H68.061V27.1H68.955V26.9ZM68.1568 26.9715L67.8808 26.0415L67.6891 26.0985L67.9651 27.0285L68.1568 26.9715ZM67.881 26.042C67.8242 25.8472 67.7658 25.6916 67.705 25.5786L67.5289 25.6734C67.5801 25.7684 67.6338 25.9088 67.689 26.098L67.881 26.042ZM67.7057 25.58C67.6419 25.4568 67.5532 25.3601 67.4394 25.2936L67.3386 25.4664C67.4167 25.5119 67.4801 25.5792 67.5282 25.672L67.7057 25.58ZM67.4394 25.2936C67.3228 25.2256 67.1753 25.196 67.005 25.196V25.396C67.1546 25.396 67.2632 25.4224 67.3386 25.4664L67.4394 25.2936ZM67.005 25.196H66.399V25.396H67.005V25.196ZM66.299 25.296V27H66.499V25.296H66.299ZM66.399 26.9H65.553V27.1H66.399V26.9ZM65.653 27V22.8H65.453V27H65.653ZM65.553 22.9H67.251V22.7H65.553V22.9ZM67.251 22.9C67.7529 22.9 68.1029 23.0006 68.3208 23.1827L68.4491 23.0293C68.179 22.8034 67.773 22.7 67.251 22.7V22.9ZM68.3216 23.1833C68.5349 23.3582 68.651 23.6386 68.651 24.048H68.851C68.851 23.6014 68.7231 23.2538 68.4484 23.0287L68.3216 23.1833ZM68.651 24.048C68.651 24.3056 68.5823 24.5021 68.4539 24.6479L68.604 24.7801C68.7716 24.5899 68.851 24.3424 68.851 24.048H68.651ZM68.453 24.6489C68.3264 24.7967 68.1483 24.8951 67.9105 24.9397L67.9474 25.1363C68.2216 25.0849 68.4435 24.9673 68.6049 24.7791L68.453 24.6489ZM67.8973 25.1329C68.0813 25.1942 68.2154 25.2983 68.3059 25.4446L68.476 25.3394C68.3586 25.1497 68.1847 25.0178 67.9606 24.9431L67.8973 25.1329ZM68.3059 25.4446C68.4037 25.6026 68.4967 25.8216 68.5833 26.1052L68.7746 26.0468C68.6853 25.7544 68.5862 25.5174 68.476 25.3394L68.3059 25.4446ZM68.5832 26.1046L68.8592 27.0286L69.0508 26.9714L68.7748 26.0474L68.5832 26.1046ZM67.275 24.736C67.4769 24.736 67.6511 24.683 67.7887 24.569L67.6612 24.415C67.5669 24.493 67.441 24.536 67.275 24.536V24.736ZM67.789 24.5688C67.9374 24.4451 68.005 24.2655 68.005 24.048H67.805C67.805 24.2225 67.7525 24.3389 67.661 24.4152L67.789 24.5688ZM68.005 24.048C68.005 23.8307 67.9375 23.6519 67.7874 23.5319L67.6625 23.6881C67.7525 23.7601 67.805 23.8733 67.805 24.048H68.005ZM67.7903 23.5343C67.6526 23.4156 67.4779 23.36 67.275 23.36V23.56C67.4401 23.56 67.5653 23.6044 67.6597 23.6857L67.7903 23.5343ZM67.275 23.36H66.399V23.56H67.275V23.36ZM66.299 23.46V24.636H66.499V23.46H66.299ZM66.399 24.736H67.275V24.536H66.399V24.736ZM69.9068 26.688L69.8408 26.7631L69.8414 26.7636L69.9068 26.688ZM69.9068 23.118L69.9722 23.1936L69.9728 23.1931L69.9068 23.118ZM72.1568 22.926L72.1098 23.0143L72.1115 23.0152L72.1568 22.926ZM72.7568 23.508L72.8138 23.5902L72.889 23.5381L72.8437 23.4585L72.7568 23.508ZM72.1508 23.928L72.0668 23.9823L72.1229 24.069L72.2078 24.0102L72.1508 23.928ZM71.7608 23.514L71.7071 23.5984L71.7083 23.5991L71.7608 23.514ZM70.5188 23.61L70.4471 23.5403L70.4471 23.5403L70.5188 23.61ZM70.5188 26.196L70.4461 26.2647L70.4481 26.2667L70.5188 26.196ZM71.8088 26.28L71.861 26.3653L71.8616 26.3649L71.8088 26.28ZM72.2048 25.842L72.2643 25.7616L72.1744 25.6951L72.1183 25.7918L72.2048 25.842ZM72.8048 26.286L72.8869 26.3431L72.9424 26.2634L72.8643 26.2056L72.8048 26.286ZM72.4088 26.73L72.3452 26.6528L72.3452 26.6528L72.4088 26.73ZM71.9108 26.988L71.9388 27.084L71.9401 27.0836L71.9108 26.988ZM71.1968 26.972C70.6464 26.972 70.2435 26.847 69.9722 26.6124L69.8414 26.7636C70.1621 27.041 70.6192 27.172 71.1968 27.172V26.972ZM69.9728 26.6129C69.7041 26.3769 69.5628 26.0258 69.5628 25.542H69.3628C69.3628 26.0662 69.5175 26.4791 69.8408 26.7631L69.9728 26.6129ZM69.5628 25.542V24.258H69.3628V25.542H69.5628ZM69.5628 24.258C69.5628 23.7741 69.7042 23.4255 69.9722 23.1936L69.8414 23.0424C69.5175 23.3225 69.3628 23.7339 69.3628 24.258H69.5628ZM69.9728 23.1931C70.244 22.9549 70.6467 22.828 71.1968 22.828V22.628C70.6189 22.628 70.1616 22.7611 69.8408 23.0429L69.9728 23.1931ZM71.1968 22.828C71.5785 22.828 71.8809 22.8924 72.1098 23.0143L72.2038 22.8377C71.9368 22.6956 71.5991 22.628 71.1968 22.628V22.828ZM72.1115 23.0152C72.345 23.1338 72.531 23.3134 72.6699 23.5575L72.8437 23.4585C72.6866 23.1826 72.4726 22.9742 72.2021 22.8368L72.1115 23.0152ZM72.6998 23.4258L72.0938 23.8458L72.2078 24.0102L72.8138 23.5902L72.6998 23.4258ZM72.2348 23.8737C72.106 23.6742 71.9662 23.5233 71.8134 23.4289L71.7083 23.5991C71.8274 23.6727 71.9477 23.7978 72.0668 23.9823L72.2348 23.8737ZM71.8145 23.4296C71.6598 23.3312 71.45 23.288 71.1968 23.288V23.488C71.4316 23.488 71.5978 23.5288 71.7071 23.5984L71.8145 23.4296ZM71.1968 23.288C70.875 23.288 70.6175 23.3652 70.4471 23.5403L70.5905 23.6797C70.7081 23.5588 70.9026 23.488 71.1968 23.488V23.288ZM70.4471 23.5403C70.2824 23.7097 70.2088 23.9553 70.2088 24.258H70.4088C70.4088 23.9847 70.4753 23.7983 70.5905 23.6797L70.4471 23.5403ZM70.2088 24.258V25.542H70.4088V24.258H70.2088ZM70.2088 25.542C70.2088 25.845 70.2825 26.0917 70.4462 26.2647L70.5915 26.1273C70.4752 26.0043 70.4088 25.815 70.4088 25.542H70.2088ZM70.4481 26.2667C70.6186 26.4372 70.8757 26.512 71.1968 26.512V26.312C70.9019 26.312 70.7071 26.2428 70.5895 26.1253L70.4481 26.2667ZM71.1968 26.512C71.4697 26.512 71.6948 26.4669 71.861 26.3653L71.7567 26.1947C71.6349 26.2691 71.4519 26.312 71.1968 26.312V26.512ZM71.8616 26.3649C72.0273 26.2619 72.1697 26.1019 72.2913 25.8922L72.1183 25.7918C72.0079 25.9821 71.8863 26.1141 71.756 26.1951L71.8616 26.3649ZM72.1453 25.9224L72.7453 26.3664L72.8643 26.2056L72.2643 25.7616L72.1453 25.9224ZM72.7227 26.2289C72.5986 26.4073 72.4726 26.548 72.3452 26.6528L72.4724 26.8072C72.6171 26.688 72.755 26.5327 72.8869 26.3431L72.7227 26.2289ZM72.3452 26.6528C72.2209 26.7552 72.067 26.8356 71.8815 26.8924L71.9401 27.0836C72.1466 27.0204 72.3248 26.9288 72.4724 26.8072L72.3452 26.6528ZM71.8828 26.892C71.7028 26.9445 71.475 26.972 71.1968 26.972V27.172C71.4867 27.172 71.7348 27.1435 71.9388 27.084L71.8828 26.892Z" fill="#FFB13D" mask="url(#path-47-outside-1_8_44)"/>
</g>
<line x1="47.125" y1="17" x2="47.125" y2="32" stroke="#FFBA53" stroke-width="0.25"/>
<defs>
<filter id="filter0_i_8_44" x="64.6" y="98" width="6.4" height="5" filterUnits="userSpaceOnUse" color-interpolation-filters="sRGB">
<feFlood flood-opacity="0" result="BackgroundImageFix"/>
<feBlend mode="normal" in="SourceGraphic" in2="BackgroundImageFix" result="shape"/>
<feColorMatrix in="SourceAlpha" type="matrix" values="0 0 0 0 0 0 0 0 0 0 0 0 0 0 0 0 0 0 127 0" result="hardAlpha"/>
<feMorphology radius="0.5" operator="erode" in="SourceAlpha" result="effect1_innerShadow_8_44"/>
<feOffset dx="-0.4"/>
<feGaussianBlur stdDeviation="0.05"/>
<feComposite in2="hardAlpha" operator="arithmetic" k2="-1" k3="1"/>
<feColorMatrix type="matrix" values="0 0 0 0 0 0 0 0 0 0 0 0 0 0 0 0 0 0 0.25 0"/>
<feBlend mode="normal" in2="shape" result="effect1_innerShadow_8_44"/>
</filter>
<filter id="filter1_i_8_44" x="47" y="16" width="36" height="16" filterUnits="userSpaceOnUse" color-interpolation-filters="sRGB">
<feFlood flood-opacity="0" result="BackgroundImageFix"/>
<feBlend mode="normal" in="SourceGraphic" in2="BackgroundImageFix" result="shape"/>
<feColorMatrix in="SourceAlpha" type="matrix" values="0 0 0 0 0 0 0 0 0 0 0 0 0 0 0 0 0 0 127 0" result="hardAlpha"/>
<feOffset dy="-1"/>
<feGaussianBlur stdDeviation="2"/>
<feComposite in2="hardAlpha" operator="arithmetic" k2="-1" k3="1"/>
<feColorMatrix type="matrix" values="0 0 0 0 0 0 0 0 0 0 0 0 0 0 0 0 0 0 0.25 0"/>
<feBlend mode="normal" in2="shape" result="effect1_innerShadow_8_44"/>
</filter>
<filter id="filter2_i_8_44" x="57" y="20" width="20" height="10" filterUnits="userSpaceOnUse" color-interpolation-filters="sRGB">
<feFlood flood-opacity="0" result="BackgroundImageFix"/>
<feBlend mode="normal" in="SourceGraphic" in2="BackgroundImageFix" result="shape"/>
<feColorMatrix in="SourceAlpha" type="matrix" values="0 0 0 0 0 0 0 0 0 0 0 0 0 0 0 0 0 0 127 0" result="hardAlpha"/>
<feOffset dx="-1" dy="1"/>
<feGaussianBlur stdDeviation="1.25"/>
<feComposite in2="hardAlpha" operator="arithmetic" k2="-1" k3="1"/>
<feColorMatrix type="matrix" values="0 0 0 0 0 0 0 0 0 0 0 0 0 0 0 0 0 0 0.25 0"/>
<feBlend mode="normal" in2="shape" result="effect1_innerShadow_8_44"/>
</filter>
<filter id="filter3_d_8_44" x="57.36" y="22.728" width="19.4448" height="12.35" filterUnits="userSpaceOnUse" color-interpolation-filters="sRGB">
<feFlood flood-opacity="0" result="BackgroundImageFix"/>
<feColorMatrix in="SourceAlpha" type="matrix" values="0 0 0 0 0 0 0 0 0 0 0 0 0 0 0 0 0 0 127 0" result="hardAlpha"/>
<feOffset dy="4"/>
<feGaussianBlur stdDeviation="2"/>
<feComposite in2="hardAlpha" operator="out"/>
<feColorMatrix type="matrix" values="0 0 0 0 0 0 0 0 0 0 0 0 0 0 0 0 0 0 0.25 0"/>
<feBlend mode="normal" in2="BackgroundImageFix" result="effect1_dropShadow_8_44"/>
<feBlend mode="normal" in="SourceGraphic" in2="effect1_dropShadow_8_44" result="shape"/>
</filter>
</defs>
</svg>
