<svg xmlns="http://www.w3.org/2000/svg" id="airfield" width="16" height="16" viewBox="0 0 20 20"><g><path d="M0,0 H20 V20 H0 Z" fill="none"/><path d="M5.5,1H14.5c2.485,0,4.5,2.015,4.5,4.5V14.5c0,2.485-2.015,4.5-4.5,4.5H5.5c-2.485,0-4.5-2.015-4.5-4.5V5.5C1,3.015,3.015,1,5.5,1Z" fill="hsl(0, 0%, 100%)" stroke="hsl(0, 0%, 10%)" stroke-linejoin="round" stroke-miterlimit="4px" stroke-width="1.2"/><path d="M9.4544 4.5456H7.8184000000000005C7.272 4.5456 7.272 4 7.8184000000000005 4h4.3632c0.5456000000000001 0 0.5456000000000001 0.5456000000000001 0 0.5456000000000001H10.5456S11.200000000000001 5.0176 11.200000000000001 6.1088000000000005V7.200000000000001h4.800000000000001v1.6L11.200000000000001 10.4l-0.4 4 2 1.0544V16H7.200000000000001v-0.5456000000000001L9.200000000000001 14.4 8.8 10.4 4 8.8V7.200000000000001h4.800000000000001V6.1088000000000005c0-1.0904 0.6544-1.5632000000000001 0.6544-1.5632000000000001z" fill="hsl(0, 0%, 10%)"/></g></svg>