<svg xmlns="http://www.w3.org/2000/svg" id="airport" width="16" height="16" viewBox="0 0 20 20"><g><path d="M0,0 H20 V20 H0 Z" fill="none"/><path d="M5.5,1H14.5c2.485,0,4.5,2.015,4.5,4.5V14.5c0,2.485-2.015,4.5-4.5,4.5H5.5c-2.485,0-4.5-2.015-4.5-4.5V5.5C1,3.015,3.015,1,5.5,1Z" fill="hsl(0, 0%, 100%)" stroke="hsl(0, 0%, 10%)" stroke-linejoin="round" stroke-miterlimit="4px" stroke-width="1.2"/><path d="M16 9.4544V10.8l-5.2-0.8-0.2544 3.8184L12.8 15.200000000000001v0.8l-2.8000000000000003-0.5456000000000001L7.200000000000001 16v-0.8l2.2544-1.3816000000000002L9.200000000000001 10 4 10.8V9.4544L9.200000000000001 7.6v-2.4000000000000004s0-1.2000000000000002 0.8-1.2000000000000002 0.8 1.2000000000000002 0.8 1.2000000000000002v2.2544l5.2 2z" fill="hsl(0, 0%, 10%)"/></g></svg>