<svg xmlns="http://www.w3.org/2000/svg" id="alcohol-shop" width="16" height="16" viewBox="0 0 20 20"><g><path d="M0,0 H20 V20 H0 Z" fill="none"/><path d="M19.5,10c0,5.247-4.253,9.5-9.5,9.5S.5,15.247,.5,10,4.753,.5,10,.5s9.5,4.253,9.5,9.5Z" fill="hsl(0, 0%, 100%)" stroke="hsl(0, 0%, 10%)" stroke-linejoin="round" stroke-miterlimit="4px" stroke-width="1.2"/><path d="M15.200000000000001 7.200000000000001h-3.2v2.8000000000000003a1.6 1.6 0 0 0 1.2000000000000002 1.544V14.4H12.8a0.4 0.4 0 0 0 0 0.8h1.6a0.4 0.4 0 0 0 0-0.8h-0.4V11.544A1.6 1.6 0 0 0 15.200000000000001 10V7.200000000000001z m-0.8 2.8000000000000003a0.8 0.8 0 1 1-1.6 0V8h1.6v2z m-6-4V5.6a0.4 0.4 0 0 0 0-0.8V4.4A0.4 0.4 0 0 0 8 4H7.200000000000001a0.4 0.4 0 0 0-0.4 0.4V4.800000000000001a0.4 0.4 0 0 0 0 0.8v0.4C6.800000000000001 7.144 4.800000000000001 8.456000000000001 4.800000000000001 9.6v4.800000000000001a0.8 0.8 0 0 0 0.8 0.8h4a0.8800000000000001 0.8800000000000001 0 0 0 0.8-0.8V9.6c0-1.08-2-2.52-2-3.6z m-0.8 7.6000000000000005a2 2 0 1 1 0-4 2 2 0 0 1 0 4z" fill="hsl(0, 0%, 10%)"/></g></svg>