<svg xmlns="http://www.w3.org/2000/svg" id="bar" width="16" height="16" viewBox="0 0 20 20"><g><path d="M0,0 H20 V20 H0 Z" fill="none"/><path d="M19.5,10c0,5.247-4.253,9.5-9.5,9.5S.5,15.247,.5,10,4.753,.5,10,.5s9.5,4.253,9.5,9.5Z" fill="hsl(0, 0%, 100%)" stroke="hsl(0, 0%, 10%)" stroke-linejoin="round" stroke-miterlimit="4px" stroke-width="1.2"/><path d="M10 4.800000000000001c-1.6 0-5.6000000000000005 0.2-5.2 0.6000000000000001L9.6 10.4v3.2c0 0.8-2.4000000000000004 0.4-2.4000000000000004 1.6h5.6000000000000005c0-1.2000000000000002-2.4000000000000004-0.8-2.4000000000000004-1.6V10.4l4.800000000000001-5c0.4-0.4-3.6-0.6000000000000001-5.2-0.6000000000000001z m0 0.8c2 0 3.8000000000000003 0.2 3.8000000000000003 0.2L13.200000000000001 6.4h-6.4l-0.6000000000000001-0.6000000000000001S8 5.6 10 5.6z" fill="hsl(0, 0%, 10%)"/></g></svg>