<svg xmlns="http://www.w3.org/2000/svg" id="bridge" width="16" height="16" viewBox="0 0 20 20"><g><path d="M0,0 H20 V20 H0 Z" fill="none"/><path d="M19.5,10c0,5.247-4.253,9.5-9.5,9.5S.5,15.247,.5,10,4.753,.5,10,.5s9.5,4.253,9.5,9.5Z" fill="hsl(0, 0%, 100%)" stroke="hsl(0, 0%, 10%)" stroke-linejoin="round" stroke-miterlimit="4px" stroke-width="1.2"/><path d="M4 9.4736V12.8h1.6v-0.8a1.656 1.656 0 0 1 1.6-1.6 1.656 1.656 0 0 1 1.6 1.6v0.8h2.4000000000000004v-0.8a1.656 1.656 0 0 1 1.6-1.6 1.656 1.656 0 0 1 1.6 1.6v0.8h1.6V9.4736a7.396 7.396 0 0 0-12 0z m7.6000000000000005-2.4864a7.0416 7.0416 0 0 1 1.2000000000000002 0.4V9.6H11.6z m-0.4-0.08000000000000002V9.6H10V6.8048c0.40240000000000004 0 0.8039999999999999 0.0344 1.2000000000000002 0.1024z m-4.4 0.6744c0.384-0.19840000000000002 0.7856000000000001-0.3608 1.2000000000000002-0.4848V9.6H6.800000000000001zM8.4 9.6V6.984A6.9856 6.9856 0 0 1 9.6 6.812000000000001V9.6zM6.4 7.7951999999999995V9.6H4.4A7.021599999999999 7.021599999999999 0 0 1 6.4 7.7951999999999995zM13.200000000000001 9.6V7.6l-0.0424-0.0424A6.9392 6.9392 0 0 1 15.6 9.6z" fill="hsl(0, 0%, 10%)"/></g></svg>