<svg xmlns="http://www.w3.org/2000/svg" id="bus" width="16" height="16" viewBox="0 0 20 20"><g><path d="M0,0 H20 V20 H0 Z" fill="none"/><path d="M5.5,1H14.5c2.485,0,4.5,2.015,4.5,4.5V14.5c0,2.485-2.015,4.5-4.5,4.5H5.5c-2.485,0-4.5-2.015-4.5-4.5V5.5C1,3.015,3.015,1,5.5,1Z" fill="hsl(204, 100%, 80%)" stroke="hsl(0, 0%, 10%)" stroke-linejoin="round" stroke-miterlimit="4px" stroke-width="1.2"/><path d="M5.6 6.4c0-0.8800000000000001 0.7200000000000001-1.6 1.6-1.6h5.6000000000000005c0.8800000000000001 0 1.6 0.7200000000000001 1.6 1.6v6.4c0 0.8-0.8 0.8-0.8 0.8v0.8c0 0.44000000000000006-0.36000000000000004 0.8-0.8 0.8s-0.8-0.36000000000000004-0.8-0.8v-0.8H8v0.8c0 0.44000000000000006-0.36000000000000004 0.8-0.8 0.8s-0.8-0.36000000000000004-0.8-0.8v-0.8c-0.8 0-0.8-0.8-0.8-0.8V6.4z m1.2000000000000002 0.8c-0.22400000000000003 0-0.4 0.17600000000000002-0.4 0.4v2.4000000000000004c0 0.22400000000000003 0.17600000000000002 0.4 0.4 0.4h6.4c0.22400000000000003 0 0.4-0.17600000000000002 0.4-0.4v-2.4000000000000004c0-0.22400000000000003-0.17600000000000002-0.4-0.4-0.4h-6.4zM7.200000000000001 11.200000000000001c-0.44000000000000006 0-0.8 0.36000000000000004-0.8 0.8s0.36000000000000004 0.8 0.8 0.8 0.8-0.36000000000000004 0.8-0.8-0.36000000000000004-0.8-0.8-0.8z m5.6000000000000005 0c-0.44000000000000006 0-0.8 0.36000000000000004-0.8 0.8s0.36000000000000004 0.8 0.8 0.8 0.8-0.36000000000000004 0.8-0.8-0.36000000000000004-0.8-0.8-0.8zM7.200000000000001 6c0 0.22400000000000003 0.17600000000000002 0.4 0.4 0.4h4.800000000000001c0.22400000000000003 0 0.4-0.17600000000000002 0.4-0.4s-0.17600000000000002-0.4-0.4-0.4h-4.800000000000001c-0.22400000000000003 0-0.4 0.17600000000000002-0.4 0.4z" fill="hsl(0, 0%, 10%)"/></g></svg>