<svg xmlns="http://www.w3.org/2000/svg" id="cafe" width="16" height="16" viewBox="0 0 20 20"><g><path d="M0,0 H20 V20 H0 Z" fill="none"/><path d="M19.5,10c0,5.247-4.253,9.5-9.5,9.5S.5,15.247,.5,10,4.753,.5,10,.5s9.5,4.253,9.5,9.5Z" fill="hsl(0, 0%, 100%)" stroke="hsl(0, 0%, 10%)" stroke-linejoin="round" stroke-miterlimit="4px" stroke-width="1.2"/><path d="M13.6 8h-1.6V6.4H5.6v3.2a3.2 3.2 0 0 0 5.960000000000001 1.6H13.6a1.6 1.6 0 1 0 0-3.2z m0 2.4000000000000004H11.888A3.2 3.2 0 0 0 12 9.6V8.8h1.6a0.8 0.8 0 1 1 0 1.6z m-1.6 3.6a0.4 0.4 0 0 1-0.4 0.4h-5.6000000000000005a0.4 0.4 0 0 1 0-0.8h5.6000000000000005a0.4 0.4 0 0 1 0.4 0.4z" fill="hsl(0, 0%, 10%)"/></g></svg>