<svg xmlns="http://www.w3.org/2000/svg" id="castle" width="16" height="16" viewBox="0 0 20 20"><g><path d="M0,0 H20 V20 H0 Z" fill="none"/><path d="M19.5,10c0,5.247-4.253,9.5-9.5,9.5S.5,15.247,.5,10,4.753,.5,10,.5s9.5,4.253,9.5,9.5Z" fill="hsl(0, 0%, 100%)" stroke="hsl(0, 0%, 10%)" stroke-linejoin="round" stroke-miterlimit="4px" stroke-width="1.2"/><path d="M12.8 7.200000000000001H7.200000000000001a0.8 0.8 0 0 1-0.8-0.8V4.4a0.4 0.4 0 0 1 0.8 0V5.6h0.8V4.800000000000001a0.8 0.8 0 1 1 1.6 0v0.8h0.8V4.800000000000001a0.8 0.8 0 1 1 1.6 0v0.8h0.8V4.4a0.4 0.4 0 0 1 0.8 0V6.4a0.8 0.8 0 0 1-0.8 0.8z m2.4000000000000004 8.4a0.4 0.4 0 0 1-0.4 0.4h-9.600000000000001a0.4 0.4 0 0 1 0-0.8H5.6a0.8 0.8 0 0 0 0.8-0.8s0.8-4.800000000000001 0.8-5.6000000000000005a0.8 0.8 0 0 1 0.8-0.8h4a0.8 0.8 0 0 1 0.8 0.8c0 0.8 0.8 5.6000000000000005 0.8 5.6000000000000005a0.8 0.8 0 0 0 0.8 0.8h0.4a0.4 0.4 0 0 1 0.4 0.392v0.008z m-4-3.2a1.2000000000000002 1.2000000000000002 0 0 0-2.4000000000000004 0V15.200000000000001h2.4000000000000004v-2.8000000000000003z" fill="hsl(0, 0%, 10%)"/></g></svg>