<svg xmlns="http://www.w3.org/2000/svg" id="cemetery" width="16" height="16" viewBox="0 0 20 20"><g><path d="M0,0 H20 V20 H0 Z" fill="none"/><path d="M19.5,10c0,5.247-4.253,9.5-9.5,9.5S.5,15.247,.5,10,4.753,.5,10,.5s9.5,4.253,9.5,9.5Z" fill="hsl(110, 100%, 80%)" stroke="hsl(0, 0%, 10%)" stroke-linejoin="round" stroke-miterlimit="4px" stroke-width="1.2"/><path d="M13.168000000000001 13.6h-0.544L13.6 6.84a0.41600000000000004 0.41600000000000004 0 0 0-0.44800000000000006-0.44000000000000006h-0.944c0-0.7360000000000001-0.984-1.6-2.2-1.6S7.816000000000001 5.664 7.816000000000001 6.4H6.832000000000001a0.41600000000000004 0.41600000000000004 0 0 0-0.43200000000000005 0.44000000000000006L7.360000000000001 13.6h-0.52a0.42400000000000004 0.42400000000000004 0 0 0-0.44000000000000006 0.4V15.200000000000001h7.2v-1.2080000000000002a0.41600000000000004 0.41600000000000004 0 0 0-0.43200000000000005-0.392zM7.6 8h4.800000000000001v0.8h-4.800000000000001V8z" fill="hsl(0, 0%, 10%)"/></g></svg>