<svg xmlns="http://www.w3.org/2000/svg" id="cinema" width="16" height="16" viewBox="0 0 20 20"><g><path d="M0,0 H20 V20 H0 Z" fill="none"/><path d="M19.5,10c0,5.247-4.253,9.5-9.5,9.5S.5,15.247,.5,10,4.753,.5,10,.5s9.5,4.253,9.5,9.5Z" fill="hsl(0, 0%, 100%)" stroke="hsl(0, 0%, 10%)" stroke-linejoin="round" stroke-miterlimit="4px" stroke-width="1.2"/><path d="M15.200000000000001 10v1.6a0.4 0.4 0 0 1-0.8 0s0.048-0.4-0.8-0.4h-0.8v2a0.4 0.4 0 0 1-0.4 0.4h-6.4a0.4 0.4 0 0 1-0.4-0.4v-3.2a0.4 0.4 0 0 1 0.4-0.4h6.4a0.4 0.4 0 0 1 0.4 0.4V10.4h0.8c0.8480000000000001 0 0.8-0.4 0.8-0.4a0.4 0.4 0 0 1 0.8 0zM7.200000000000001 6.4a1.6 1.6 0 1 0 0 3.2 1.6 1.6 0 0 0 0-3.2z m0 2.4000000000000004a0.8 0.8 0 1 1 0-1.6 0.8 0.8 0 0 1 0 1.6z m3.6-3.2a2 2 0 1 0 0 4 2 2 0 0 0 0-4z m0 3.2a1.2000000000000002 1.2000000000000002 0 1 1 0-2.4000000000000004 1.2000000000000002 1.2000000000000002 0 0 1 0 2.4000000000000004z" fill="hsl(0, 0%, 10%)"/></g></svg>