<svg xmlns="http://www.w3.org/2000/svg" id="college" width="16" height="16" viewBox="0 0 20 20"><g><path d="M0,0 H20 V20 H0 Z" fill="none"/><path d="M19.5,10c0,5.247-4.253,9.5-9.5,9.5S.5,15.247,.5,10,4.753,.5,10,.5s9.5,4.253,9.5,9.5Z" fill="hsl(30, 100%, 80%)" stroke="hsl(0, 0%, 10%)" stroke-linejoin="round" stroke-miterlimit="4px" stroke-width="1.2"/><path d="M10 4.800000000000001L4 7.6l1.6 0.7200000000000001v1.36c-0.48 0.16000000000000003-0.8 0.6400000000000001-0.8 1.1199999999999999s0.32000000000000006 0.96 0.8 1.1199999999999999v0.08000000000000002l-0.7200000000000001 1.6800000000000002C4.640000000000001 14.4 4.800000000000001 15.200000000000001 6 15.200000000000001s1.36-0.8 1.1199999999999999-1.52L6.4 12c0.48-0.24 0.8-0.6400000000000001 0.8-1.2000000000000002s-0.32000000000000006-0.96-0.8-1.1199999999999999V8.72L10 10.4 16 7.6 10 4.800000000000001z m3.5200000000000005 5.2l-3.6 1.6L8 10.72v0.08000000000000002c0 0.5599999999999999-0.24 1.04-0.6400000000000001 1.4400000000000002l0.48 1.1199999999999999v0.08000000000000002c0.08000000000000002 0.32000000000000006 0.16000000000000003 0.6400000000000001 0.08000000000000002 0.96 0.5599999999999999 0.24 1.2000000000000002 0.4 2 0.4 2.64 0 3.6-1.6 3.6-2.4000000000000004v-2.4000000000000004z" fill="hsl(0, 0%, 10%)"/></g></svg>