<svg xmlns="http://www.w3.org/2000/svg" id="entrance" width="16" height="16" viewBox="0 0 20 20"><g><path d="M0,0 H20 V20 H0 Z" fill="none"/><path d="M5.5,1H14.5c2.485,0,4.5,2.015,4.5,4.5V14.5c0,2.485-2.015,4.5-4.5,4.5H5.5c-2.485,0-4.5-2.015-4.5-4.5V5.5C1,3.015,3.015,1,5.5,1Z" fill="hsl(204, 100%, 80%)" stroke="hsl(0, 0%, 10%)" stroke-linejoin="round" stroke-miterlimit="4px" stroke-width="1.2"/><path d="M9.2432 11.7112a0.4 0.4 0 0 0 0.5656 0.5656l2.1336-2.1416a0.2 0.2 0 0 0 0-0.2832L9.8088 7.7112a0.4 0.4 0 0 0-0.5656 0.5656L10.559999999999999 9.6H5.2a0.4 0.4 0 0 0 0 0.8h5.36zM13.6 4.800000000000001H8.4a0.4 0.4 0 0 0 0 0.8h4.800000000000001a0.4 0.4 0 0 1 0.4 0.4v8a0.4 0.4 0 0 1-0.4 0.4H8.200000000000001a0.4 0.4 0 0 0 0 0.8H13.6a0.8 0.8 0 0 0 0.8-0.8V5.6a0.8 0.8 0 0 0-0.8-0.8z" fill="hsl(0, 0%, 10%)"/></g></svg>