<svg xmlns="http://www.w3.org/2000/svg" id="fast-food" width="16" height="16" viewBox="0 0 20 20"><g><path d="M0,0 H20 V20 H0 Z" fill="none"/><path d="M19.5,10c0,5.247-4.253,9.5-9.5,9.5S.5,15.247,.5,10,4.753,.5,10,.5s9.5,4.253,9.5,9.5Z" fill="hsl(0, 0%, 100%)" stroke="hsl(0, 0%, 10%)" stroke-linejoin="round" stroke-miterlimit="4px" stroke-width="1.2"/><path d="M15.200000000000001 10.4a0.8 0.8 0 0 1-0.8 0.8H5.6a0.8 0.8 0 1 1 0-1.6h8.8a0.8 0.8 0 0 1 0.8 0.8zM6.800000000000001 12H5.6a2.4000000000000004 2.4000000000000004 0 0 0 2.4000000000000004 2.4000000000000004h4a2.4000000000000004 2.4000000000000004 0 0 0 2.4000000000000004-2.4000000000000004H6.800000000000001zM6.4 8.8H5.6V7.200000000000001a1.6 1.6 0 0 1 1.6-1.6h5.6000000000000005a1.6 1.6 0 0 1 1.6 1.6v1.6H6.4z m6.4-1.2000000000000002a0.4 0.4 0 1 0 0.8 0 0.4 0.4 0 0 0-0.8 0z m-1.6-0.8a0.4 0.4 0 1 0 0.8 0 0.4 0.4 0 0 0-0.8 0z m-1.6 0.8a0.4 0.4 0 1 0 0.8 0 0.4 0.4 0 0 0-0.8 0z m-1.6-0.8a0.4 0.4 0 1 0 0.8 0 0.4 0.4 0 0 0-0.8 0z m-1.6 0.8a0.4 0.4 0 1 0 0.8 0 0.4 0.4 0 0 0-0.8 0z" fill="hsl(0, 0%, 10%)"/></g></svg>