<svg xmlns="http://www.w3.org/2000/svg" id="fire-station" width="16" height="16" viewBox="0 0 20 20"><g><path d="M0,0 H20 V20 H0 Z" fill="none"/><path d="M19.5,10c0,5.247-4.253,9.5-9.5,9.5S.5,15.247,.5,10,4.753,.5,10,.5s9.5,4.253,9.5,9.5Z" fill="hsl(0, 0%, 100%)" stroke="hsl(0, 0%, 10%)" stroke-linejoin="round" stroke-miterlimit="4px" stroke-width="1.2"/><path d="M10 15.200000000000001c2.872 0 5.2-2.4000000000000004 5.2-5.2 0-2.4000000000000004-2-4.4-2-4.4l-0.8 2.8000000000000003-2.4000000000000004-3.6-2.4000000000000004 3.6-0.8-2.8000000000000003S4.800000000000001 7.6 4.800000000000001 10C4.800000000000001 12.8 7.128 15.200000000000001 10 15.200000000000001z m0-1.2000000000000002A2 2 0 0 1 8 12c0-1.1039999999999999 2-3.6 2-3.6S12 10.895999999999999 12 12a2 2 0 0 1-2 2z" fill="hsl(0, 0%, 10%)"/></g></svg>