<svg xmlns="http://www.w3.org/2000/svg" id="fuel" width="16" height="16" viewBox="0 0 20 20"><g><path d="M0,0 H20 V20 H0 Z" fill="none"/><path d="M19.5,10c0,5.247-4.253,9.5-9.5,9.5S.5,15.247,.5,10,4.753,.5,10,.5s9.5,4.253,9.5,9.5Z" fill="hsl(0, 0%, 100%)" stroke="hsl(0, 0%, 10%)" stroke-linejoin="round" stroke-miterlimit="4px" stroke-width="1.2"/><path d="M15.200000000000001 8.8v4.4a0.4 0.4 0 0 1-0.8 0v-1.6A1.2000000000000002 1.2000000000000002 0 0 0 13.200000000000001 10.4H12V5.6a0.8 0.8 0 0 0-0.8-0.8H6.4a0.8 0.8 0 0 0-0.8 0.8v8.8a0.8 0.8 0 0 0 0.8 0.8h4.800000000000001a0.8 0.8 0 0 0 0.8-0.8V11.200000000000001h1.2000000000000002a0.4 0.4 0 0 1 0.4 0.4v1.6a1.2000000000000002 1.2000000000000002 0 0 0 2.4000000000000004 0V8a0.8 0.8 0 0 0-0.8-0.8V5.992000000000001a0.4 0.4 0 0 0-0.4-0.392 0.40800000000000003 0.40800000000000003 0 0 0-0.4 0.44000000000000006V8a0.8 0.8 0 1 0 0.8-0.8z m-4 0.4a0.4 0.4 0 0 1-0.4 0.4h-4a0.4 0.4 0 0 1-0.4-0.4v-2.4000000000000004a0.4 0.4 0 0 1 0.4-0.4h4a0.4 0.4 0 0 1 0.4 0.4z" fill="hsl(0, 0%, 10%)"/></g></svg>