<svg xmlns="http://www.w3.org/2000/svg" id="furniture" width="16" height="16" viewBox="0 0 20 20"><g><path d="M0,0 H20 V20 H0 Z" fill="none"/><path d="M19.5,10c0,5.247-4.253,9.5-9.5,9.5S.5,15.247,.5,10,4.753,.5,10,.5s9.5,4.253,9.5,9.5Z" fill="hsl(0, 0%, 100%)" stroke="hsl(0, 0%, 10%)" stroke-linejoin="round" stroke-miterlimit="4px" stroke-width="1.2"/><path d="M10.9528 12.1136V10.8a0.4 0.4 0 0 0-0.4-0.4h-0.8a0.4 0.4 0 0 0-0.4 0.4v1.3128000000000002a3.192 3.192 0 0 0-2.3656 2.6176 0.4056 0.4056 0 0 0 0.4 0.4688h5.5376a0.4056 0.4056 0 0 0 0.4-0.4688 3.192 3.192 0 0 0-2.372-2.6168z m3.7112000000000003-3.0904000000000003l-2-4A0.4 0.4 0 0 0 12.3064 4.800000000000001H7.9992a0.4 0.4 0 0 0-0.3568 0.22080000000000002l-2 4A0.4 0.4 0 0 0 5.9976 9.6h6.555200000000001v1.2000000000000002a0.4 0.4 0 0 0 0.8 0V9.6h0.9552a0.4 0.4 0 0 0 0.35600000000000004-0.5768z" fill="hsl(0, 0%, 10%)"/></g></svg>