<svg xmlns="http://www.w3.org/2000/svg" id="garden" width="16" height="16" viewBox="0 0 20 20"><g><path d="M0,0 H20 V20 H0 Z" fill="none"/><path d="M19.5,10c0,5.247-4.253,9.5-9.5,9.5S.5,15.247,.5,10,4.753,.5,10,.5s9.5,4.253,9.5,9.5Z" fill="hsl(110, 100%, 80%)" stroke="hsl(0, 0%, 10%)" stroke-linejoin="round" stroke-miterlimit="4px" stroke-width="1.2"/><path d="M14.4 10.4c0 2.648-1.752 4.800000000000001-4.4 4.800000000000001S5.6 13.048 5.6 10.4a4.264 4.264 0 0 1 4 2.888V9.6H7.6A1.2000000000000002 1.2000000000000002 0 0 1 6.4 8.4v-2.4000000000000004a0.4 0.4 0 0 1 0.7200000000000001-0.24l1.2240000000000002 1.6 1.32-2.4000000000000004a0.4 0.4 0 0 1 0.672 0l1.32 2.4000000000000004 1.2240000000000002-1.6a0.4 0.4 0 0 1 0.7200000000000001 0.24v2.4000000000000004A1.2000000000000002 1.2000000000000002 0 0 1 12.4 9.6H10.4v3.6880000000000006A4.264 4.264 0 0 1 14.4 10.4z" fill="hsl(0, 0%, 10%)"/></g></svg>