<svg xmlns="http://www.w3.org/2000/svg" id="globe" width="16" height="16" viewBox="0 0 20 20"><g><path d="M0,0 H20 V20 H0 Z" fill="none"/><path d="M19.5,10c0,5.247-4.253,9.5-9.5,9.5S.5,15.247,.5,10,4.753,.5,10,.5s9.5,4.253,9.5,9.5Z" fill="hsl(0, 0%, 100%)" stroke="hsl(0, 0%, 10%)" stroke-linejoin="round" stroke-miterlimit="4px" stroke-width="1.2"/><path d="M13.5848 11.5848l-0.5768-0.5768a3.9832 3.9832 0 1 1-5.616-5.616l-0.5768-0.5768A4.7928 4.7928 0 0 0 9.6 13.18V14.4h-0.4a0.4 0.4 0 0 0 0 0.8h1.6a0.4 0.4 0 0 0 0-0.8H10.4v-1.2216a4.7863999999999995 4.7863999999999995 0 0 0 3.1848-1.5936000000000001zM10 11.200000000000001A2.8000000000000003 2.8000000000000003 0 1 0 7.200000000000001 8.4 2.8000000000000003 2.8000000000000003 0 0 0 10 11.200000000000001z m0.8-4l0.2912-0.4736a2 2 0 0 1 0.6584 0.7200000000000001L11.6 8h-0.8z m-1.4752-0.6752L10 7.200000000000001v0.8L10.4 8.8h1.552a1.9952000000000003 1.9952000000000003 0 0 1-1.2000000000000002 1.4512L10.4 9.6H9.200000000000001L8.040000000000001 8a2 2 0 0 1 1.2848000000000002-1.4752z" fill="hsl(0, 0%, 10%)"/></g></svg>