<svg xmlns="http://www.w3.org/2000/svg" id="historic" width="16" height="16" viewBox="0 0 20 20"><g><path d="M0,0 H20 V20 H0 Z" fill="none"/><path d="M19.5,10c0,5.247-4.253,9.5-9.5,9.5S.5,15.247,.5,10,4.753,.5,10,.5s9.5,4.253,9.5,9.5Z" fill="hsl(0, 0%, 100%)" stroke="hsl(0, 0%, 10%)" stroke-linejoin="round" stroke-miterlimit="4px" stroke-width="1.2"/><path d="M10 4.800000000000001c-0.8 0-0.8 0.8-1.6 0.8H5.6c-0.43600000000000005 0-0.8 0.36400000000000005-0.8 0.8v5.6000000000000005c0 0.43600000000000005 0.36400000000000005 0.8 0.8 0.8h4v2s0 0.4 0.4 0.4 0.4-0.4 0.4-0.4V12.8h4c0.43600000000000005 0 0.8-0.36400000000000005 0.8-0.8V6.4c0-0.43600000000000005-0.36400000000000005-0.8-0.8-0.8H11.6c-0.8 0-0.8-0.8-1.6-0.8zM6.4 8V7.200000000000001h7.2v0.8z m0 0.8h3.2v0.8H6.4z m0 1.6h5.6000000000000005v0.8H6.4z" fill="hsl(0, 0%, 10%)"/></g></svg>