<svg xmlns="http://www.w3.org/2000/svg" id="hospital" width="16" height="16" viewBox="0 0 20 20"><g><path d="M0,0 H20 V20 H0 Z" fill="none"/><path d="M19.5,10c0,5.247-4.253,9.5-9.5,9.5S.5,15.247,.5,10,4.753,.5,10,.5s9.5,4.253,9.5,9.5Z" fill="hsl(360, 100%, 80%)" stroke="hsl(0, 0%, 10%)" stroke-linejoin="round" stroke-miterlimit="4px" stroke-width="1.2"/><path d="M9.6 4.800000000000001c-0.48 0-0.8 0.32000000000000006-0.8 0.8v3.2H5.6c-0.48 0-0.8 0.32000000000000006-0.8 0.8v0.8c0 0.48 0.32000000000000006 0.8 0.8 0.8h3.2v3.2c0 0.48 0.32000000000000006 0.8 0.8 0.8h0.8c0.48 0 0.8-0.32000000000000006 0.8-0.8V11.200000000000001h3.2c0.48 0 0.8-0.32000000000000006 0.8-0.8V9.6c0-0.48-0.32000000000000006-0.8-0.8-0.8H11.200000000000001V5.6c0-0.48-0.32000000000000006-0.8-0.8-0.8H9.6z" fill="hsl(0, 0%, 10%)"/></g></svg>