<svg xmlns="http://www.w3.org/2000/svg" id="industry" width="16" height="16" viewBox="0 0 20 20"><g><path d="M0,0 H20 V20 H0 Z" fill="none"/><path d="M19.5,10c0,5.247-4.253,9.5-9.5,9.5S.5,15.247,.5,10,4.753,.5,10,.5s9.5,4.253,9.5,9.5Z" fill="hsl(0, 0%, 100%)" stroke="hsl(0, 0%, 10%)" stroke-linejoin="round" stroke-miterlimit="4px" stroke-width="1.2"/><path d="M15.200000000000001 4.800000000000001v9.600000000000001H4.800000000000001V10.976a0.4 0.4 0 0 1 0.136-0.296l2.4000000000000004-2.5760000000000005a0.4 0.4 0 0 1 0.664 0.30400000000000005v2.4000000000000004l2.5280000000000005-2.696a0.4 0.4 0 0 1 0.672 0.296V12.8h2.4000000000000004V4.800000000000001h1.6z" fill="hsl(0, 0%, 10%)"/></g></svg>