<svg xmlns="http://www.w3.org/2000/svg" id="laundry" width="16" height="16" viewBox="0 0 20 20"><g><path d="M0,0 H20 V20 H0 Z" fill="none"/><path d="M19.5,10c0,5.247-4.253,9.5-9.5,9.5S.5,15.247,.5,10,4.753,.5,10,.5s9.5,4.253,9.5,9.5Z" fill="hsl(0, 0%, 100%)" stroke="hsl(0, 0%, 10%)" stroke-linejoin="round" stroke-miterlimit="4px" stroke-width="1.2"/><path d="M10.4 4.800000000000001L8.8 6.4H6.4S5.6 6.4 5.6 7.200000000000001v7.2c0 0.8 0.8 0.8 0.8 0.8h7.2s0.8 0 0.8-0.8V5.6c0-0.8-0.8-0.8-0.8-0.8H10.4z m0.4 0.8h1.6a0.3992 0.3992 0 1 1 0 0.8h-1.6a0.3992 0.3992 0 1 1 0-0.8z m-0.8 3.2a2.4000000000000004 2.4000000000000004 0 1 1 0 4.800000000000001 2.4000000000000004 2.4000000000000004 0 0 1 0-4.800000000000001z" fill="hsl(0, 0%, 10%)"/></g></svg>