<svg xmlns="http://www.w3.org/2000/svg" id="lodging" width="16" height="16" viewBox="0 0 20 20"><g><path d="M0,0 H20 V20 H0 Z" fill="none"/><path d="M19.5,10c0,5.247-4.253,9.5-9.5,9.5S.5,15.247,.5,10,4.753,.5,10,.5s9.5,4.253,9.5,9.5Z" fill="hsl(0, 0%, 100%)" stroke="hsl(0, 0%, 10%)" stroke-linejoin="round" stroke-miterlimit="4px" stroke-width="1.2"/><path d="M4.4 6c-0.24 0-0.4 0.16000000000000003-0.4 0.4v7.6000000000000005c0 0.24 0.16000000000000003 0.4 0.4 0.4s0.4-0.16000000000000003 0.4-0.4V12.8h10.4v1.2000000000000002c0 0.24 0.16000000000000003 0.4 0.4 0.4s0.4-0.16000000000000003 0.4-0.4v-1.6c0-0.24-0.16000000000000003-0.4-0.4-0.4H4.800000000000001V6.4c0-0.24-0.16000000000000003-0.4-0.4-0.4z m2.4000000000000004 0.4C6.16 6.4 5.6 6.960000000000001 5.6 7.6S6.16 8.8 6.800000000000001 8.8 8 8.24 8 7.6 7.4399999999999995 6.4 6.800000000000001 6.4zM9.6 7.200000000000001C8.4 7.200000000000001 8.4 8.4 8.4 8.4V9.6h-2.4000000000000004c-0.24 0-0.4 0.16000000000000003-0.4 0.4v0.8c0 0.24 0.16000000000000003 0.4 0.4 0.4H16V9.200000000000001C16 7.200000000000001 14 7.200000000000001 14 7.200000000000001H9.6z" fill="hsl(0, 0%, 10%)"/></g></svg>