<svg xmlns="http://www.w3.org/2000/svg" id="mobile-phone" width="16" height="16" viewBox="0 0 20 20"><g><path d="M0,0 H20 V20 H0 Z" fill="none"/><path d="M19.5,10c0,5.247-4.253,9.5-9.5,9.5S.5,15.247,.5,10,4.753,.5,10,.5s9.5,4.253,9.5,9.5Z" fill="hsl(0, 0%, 100%)" stroke="hsl(0, 0%, 10%)" stroke-linejoin="round" stroke-miterlimit="4px" stroke-width="1.2"/><path d="M12 5.6v-0.4a0.4 0.4 0 0 0-0.8 0V5.6H8a0.8 0.8 0 0 0-0.8 0.8v8a0.8 0.8 0 0 0 0.8 0.8h4a0.8 0.8 0 0 0 0.8-0.8V6.4a0.8 0.8 0 0 0-0.8-0.8zM8.8 14.4H8v-0.8h0.8z m0-1.6H8v-0.8h0.8z m0-1.6H8V10.4h0.8z m1.6 3.2H9.6v-0.8h0.8z m0-1.6H9.6v-0.8h0.8z m0-1.6H9.6V10.4h0.8z m1.6 3.2H11.200000000000001v-0.8h0.8z m0-1.6H11.200000000000001v-0.8h0.8z m0-1.6H11.200000000000001V10.4h0.8z m0-2a0.4 0.4 0 0 1-0.4 0.4h-3.2a0.4 0.4 0 0 1-0.4-0.4v-2.4000000000000004a0.4 0.4 0 0 1 0.4-0.4h3.2a0.4 0.4 0 0 1 0.4 0.4z" fill="hsl(0, 0%, 10%)"/></g></svg>