<svg xmlns="http://www.w3.org/2000/svg" id="music" width="16" height="16" viewBox="0 0 20 20"><g><path d="M0,0 H20 V20 H0 Z" fill="none"/><path d="M19.5,10c0,5.247-4.253,9.5-9.5,9.5S.5,15.247,.5,10,4.753,.5,10,.5s9.5,4.253,9.5,9.5Z" fill="hsl(0, 0%, 100%)" stroke="hsl(0, 0%, 10%)" stroke-linejoin="round" stroke-miterlimit="4px" stroke-width="1.2"/><path d="M14 4a0.392 0.392 0 0 0-0.18400000000000002 0.048L6.800000000000001 6A0.4 0.4 0 0 0 6.4 6.4v5.024000000000001A1.6 1.6 0 0 0 5.6 11.200000000000001a1.6 1.6 0 1 0 1.6 1.6V9.088l6.4-1.7760000000000002v2.9120000000000004a1.6 1.6 0 0 0-0.8-0.22400000000000003 1.6 1.6 0 1 0 1.6 1.6v-7.2a0.4 0.4 0 0 0-0.4-0.4zM13.6 6.5120000000000005L7.200000000000001 8.288v-1.6l6.4-1.7760000000000002z" fill="hsl(0, 0%, 10%)"/></g></svg>