<svg xmlns="http://www.w3.org/2000/svg" id="park" width="16" height="16" viewBox="0 0 20 20"><g><path d="M0,0 H20 V20 H0 Z" fill="none"/><path d="M19.5,10c0,5.247-4.253,9.5-9.5,9.5S.5,15.247,.5,10,4.753,.5,10,.5s9.5,4.253,9.5,9.5Z" fill="hsl(110, 100%, 80%)" stroke="hsl(0, 0%, 10%)" stroke-linejoin="round" stroke-miterlimit="4px" stroke-width="1.2"/><path d="M15.200000000000001 8.6a1.4000000000000001 1.4000000000000001 0 0 0-0.8-1.2880000000000003A0.992 0.992 0 0 0 13.4 6.4a0.9576000000000001 0.9576000000000001 0 0 0-0.23199999999999998 0.048 0.96 0.96 0 0 0-1.6-0.6240000000000001 1 1 0 1 0-2 0s0.032 0.016 0.032 0.04000000000000001a0.976 0.976 0 0 0-1.6 0.592A1.1928 1.1928 0 0 0 7.6080000000000005 6.4a1.2000000000000002 1.2000000000000002 0 0 0-1.1199999999999999 1.656 1.192 1.192 0 0 0 0 2.2960000000000003A1.192 1.192 0 0 0 8.8 10.168000000000001c0.1464 0.128 0.328 0.20800000000000002 0.52 0.23199999999999998v4L8 15.200000000000001h4l-1.2800000000000002-0.8v-1.6a5.44 5.44 0 0 1 2.216-1.6A1.192 1.192 0 0 0 14.4 10.016a1.1776 1.1776 0 0 0 0-0.128 1.4000000000000001 1.4000000000000001 0 0 0 0.8-1.2880000000000003z m-4.4799999999999995 3.608V9.456000000000001c0.21600000000000003 0.384 0.6224000000000001 0.6232000000000001 1.064 0.6240000000000001h0.22400000000000003c0.0128 0.35200000000000004 0.17920000000000003 0.6792 0.45599999999999996 0.8960000000000001a5.800000000000001 5.800000000000001 0 0 0-1.7440000000000002 1.2320000000000002z" fill="hsl(0, 0%, 10%)"/></g></svg>