<svg xmlns="http://www.w3.org/2000/svg" id="pharmacy" width="16" height="16" viewBox="0 0 20 20"><g><path d="M0,0 H20 V20 H0 Z" fill="none"/><path d="M19.5,10c0,5.247-4.253,9.5-9.5,9.5S.5,15.247,.5,10,4.753,.5,10,.5s9.5,4.253,9.5,9.5Z" fill="hsl(360, 100%, 80%)" stroke="hsl(0, 0%, 10%)" stroke-linejoin="round" stroke-miterlimit="4px" stroke-width="1.2"/><path d="M11.6 7.200000000000001l0.8560000000000001-1.2320000000000002c0.048 0.004 0.096 0.004 0.144 0A1 1 0 1 0 11.6 5v0.08000000000000002L9.6 7.200000000000001h2zM13.6 8.8V8H6.4v0.8l1.2000000000000002 2.8000000000000003L6.4 14.4v0.8h7.2v-0.8l-0.8-2.8000000000000003L13.6 8.8z m-1.6 3.2H10.4v1.6H9.6v-1.6H8V11.200000000000001h1.6V9.6h0.8v1.6h1.6v0.8z" fill="hsl(0, 0%, 10%)"/></g></svg>