<svg xmlns="http://www.w3.org/2000/svg" id="place-of-worship" width="16" height="16" viewBox="0 0 20 20"><g><path d="M0,0 H20 V20 H0 Z" fill="none"/><path d="M19.5,10c0,5.247-4.253,9.5-9.5,9.5S.5,15.247,.5,10,4.753,.5,10,.5s9.5,4.253,9.5,9.5Z" fill="hsl(0, 0%, 100%)" stroke="hsl(0, 0%, 10%)" stroke-linejoin="round" stroke-miterlimit="4px" stroke-width="1.2"/><path d="M10 4l-1.6 1.6v1.6h3.2V5.6l-1.6-1.6z m-1.6 3.6L7.200000000000001 8.8h5.6000000000000005L11.6 7.6h-3.2zM5.6 9.200000000000001a0.8 0.8 0 0 0-0.8 0.8V14.4h1.6V10a0.8 0.8 0 0 0-0.8-0.8z m1.6 0V14.4h5.6000000000000005V9.200000000000001H7.200000000000001z m7.2 0a0.8 0.8 0 0 0-0.8 0.8V14.4h1.6V10a0.8 0.8 0 0 0-0.8-0.8z" fill="hsl(0, 0%, 10%)"/></g></svg>