<svg xmlns="http://www.w3.org/2000/svg" id="police" width="16" height="16" viewBox="0 0 20 20"><g><path d="M0,0 H20 V20 H0 Z" fill="none"/><path d="M19.5,10c0,5.247-4.253,9.5-9.5,9.5S.5,15.247,.5,10,4.753,.5,10,.5s9.5,4.253,9.5,9.5Z" fill="hsl(0, 0%, 100%)" stroke="hsl(0, 0%, 10%)" stroke-linejoin="round" stroke-miterlimit="4px" stroke-width="1.2"/><path d="M8.4 4.800000000000001L8.8 5.6h4l0.4-0.8h-4.800000000000001zM8.8 6v1S8.8 9.200000000000001 10.8 9.200000000000001 12.8 7 12.8 7V6H8.8zM5.5872 7.1888000000000005A0.8 0.8 0 0 0 4.800000000000001 8v3.2a0.8 0.8 0 0 0 0.9736000000000001 0.7816000000000001L8 11.4856V15.200000000000001l4.7032-5.5440000000000005c-0.11200000000000002-0.032-0.22719999999999999-0.05600000000000001-0.35040000000000004-0.05600000000000001H9.200000000000001L6.4 10.203199999999999V8a0.8 0.8 0 0 0-0.8128000000000001-0.8112z m7.8111999999999995 2.9800000000000004L9.1296 15.200000000000001H13.6V10.847199999999999c0-0.25120000000000003-0.0752-0.4832-0.2016-0.6784z" fill="hsl(0, 0%, 10%)"/></g></svg>