<svg xmlns="http://www.w3.org/2000/svg" id="post" width="16" height="16" viewBox="0 0 20 20"><g><path d="M0,0 H20 V20 H0 Z" fill="none"/><path d="M19.5,10c0,5.247-4.253,9.5-9.5,9.5S.5,15.247,.5,10,4.753,.5,10,.5s9.5,4.253,9.5,9.5Z" fill="hsl(0, 0%, 100%)" stroke="hsl(0, 0%, 10%)" stroke-linejoin="round" stroke-miterlimit="4px" stroke-width="1.2"/><path d="M14.8 6.9208a0.5208 0.5208 0 0 1-0.23199999999999998 0.43360000000000004L10 10.4 5.432 7.3544A0.5208 0.5208 0 0 1 5.7208000000000006 6.4H14.28c0.288 0 0.5208 0.2336 0.5208 0.5208z m0 1.8528V12.8a0.8 0.8 0 0 1-0.8 0.8h-8a0.8 0.8 0 0 1-0.8-0.8V8.7736c0-0.16000000000000003 0.1784-0.25520000000000004 0.31120000000000003-0.1664L10 11.6l4.4888-2.9920000000000004a0.2 0.2 0 0 1 0.31120000000000003 0.1656z" fill="hsl(0, 0%, 10%)"/></g></svg>