<svg xmlns="http://www.w3.org/2000/svg" id="rail-light" width="16" height="16" viewBox="0 0 20 20"><g><path d="M0,0 H20 V20 H0 Z" fill="none"/><path d="M5.5,1H14.5c2.485,0,4.5,2.015,4.5,4.5V14.5c0,2.485-2.015,4.5-4.5,4.5H5.5c-2.485,0-4.5-2.015-4.5-4.5V5.5C1,3.015,3.015,1,5.5,1Z" fill="hsl(204, 100%, 80%)" stroke="hsl(0, 0%, 10%)" stroke-linejoin="round" stroke-miterlimit="4px" stroke-width="1.2"/><path d="M8.4 4C8 4 8 4.4 8 4.4v0.8a0.3992 0.3992 0 1 0 0.8 0V4.800000000000001h0.8v1.6H8.8S7.200000000000001 6.4 7.200000000000001 8v2.4000000000000004c0 2.4000000000000004 2.4000000000000004 2.4000000000000004 2.4000000000000004 2.4000000000000004h0.8s2.4000000000000004 0 2.4000000000000004-2.4000000000000004V8c0-1.6-1.6-1.6-1.6-1.6H10.4V4.800000000000001h0.8v0.4a0.3992 0.3992 0 1 0 0.8 0v-0.8c0-0.4-0.4-0.4-0.4-0.4h-3.2z m1.6 3.2l1.6360000000000001 0.6184000000000001L12 9.200000000000001c0.10560000000000001 0.4-0.4 0.4-0.4 0.4h-3.2s-0.5056 0-0.4-0.4l0.36400000000000005-1.3816000000000002L10 7.200000000000001z m0 3.2a0.4 0.4 0 1 1 0 0.8 0.4 0.4 0 0 1 0-0.8z m-2.7 3.2L6.4 16h1.2000000000000002l0.30000000000000004-0.8h4.2l0.30000000000000004 0.8H13.6l-0.9-2.4000000000000004h-1.2000000000000002l0.30000000000000004 0.8h-3.6l0.30000000000000004-0.8h-1.2000000000000002z" fill="hsl(0, 0%, 10%)"/></g></svg>