<svg xmlns="http://www.w3.org/2000/svg" id="rail" width="16" height="16" viewBox="0 0 20 20"><g><path d="M0,0 H20 V20 H0 Z" fill="none"/><path d="M5.5,1H14.5c2.485,0,4.5,2.015,4.5,4.5V14.5c0,2.485-2.015,4.5-4.5,4.5H5.5c-2.485,0-4.5-2.015-4.5-4.5V5.5C1,3.015,3.015,1,5.5,1Z" fill="hsl(204, 100%, 80%)" stroke="hsl(0, 0%, 10%)" stroke-linejoin="round" stroke-miterlimit="4px" stroke-width="1.2"/><path d="M6.4 4.800000000000001a0.8 0.8 0 0 0-0.8 0.8v6.4a0.8 0.8 0 0 0 0.8 0.8h7.2a0.8 0.8 0 0 0 0.8-0.8V5.6a0.8 0.8 0 0 0-0.8-0.8H6.4z m2.2 0.4h2.808a0.2 0.2 0 1 1 0 0.4H8.6a0.2 0.2 0 1 1 0-0.4zM6.800000000000001 6.4H9.6v3.2H6.800000000000001a0.4 0.4 0 0 1-0.4-0.4v-2.4000000000000004a0.4 0.4 0 0 1 0.4-0.4zM10.4 6.4h2.8000000000000003a0.4 0.4 0 0 1 0.4 0.4v2.4000000000000004a0.4 0.4 0 0 1-0.4 0.4H10.4V6.4zM8 10.4a0.8 0.8 0 1 1 0 1.6 0.8 0.8 0 0 1 0-1.6z m4 0a0.8 0.8 0 1 1 0 1.6 0.8 0.8 0 0 1 0-1.6z m0.35600000000000004 3.1952000000000003a0.4032 0.4032 0 0 0-0.34 0.5408000000000001l0.136 0.264H7.848000000000001l0.10400000000000001-0.21600000000000003a0.4 0.4 0 0 0-0.7280000000000001-0.328l-0.8 1.6a0.3896 0.3896 0 0 0-0.024 0.144 0.4 0.4 0 0 0 0.4 0.4 0.392 0.392 0 0 0 0.34400000000000003-0.20800000000000002v-0.04000000000000001H7.200000000000001l0.248-0.5519999999999999h5.104l0.248 0.5519999999999999v0.04000000000000001a0.392 0.392 0 0 0 0.34400000000000003 0.20800000000000002 0.4 0.4 0 0 0 0.4-0.4 0.392 0.392 0 0 0 0-0.192l-0.8-1.6a0.4 0.4 0 0 0-0.388-0.21280000000000002z" fill="hsl(0, 0%, 10%)"/></g></svg>