<svg xmlns="http://www.w3.org/2000/svg" id="rail-metro" width="16" height="16" viewBox="0 0 20 20"><g><path d="M0,0 H20 V20 H0 Z" fill="none"/><path d="M5.5,1H14.5c2.485,0,4.5,2.015,4.5,4.5V14.5c0,2.485-2.015,4.5-4.5,4.5H5.5c-2.485,0-4.5-2.015-4.5-4.5V5.5C1,3.015,3.015,1,5.5,1Z" fill="hsl(204, 100%, 80%)" stroke="hsl(0, 0%, 10%)" stroke-linejoin="round" stroke-miterlimit="4px" stroke-width="1.2"/><path d="M8.4 4s-0.6000000000000001 0-0.8 0.8L6.4 9.200000000000001V12c0 0.8 0.8 0.8 0.8 0.8h5.6000000000000005s0.8 0 0.8-0.8V9.200000000000001L12.4 4.800000000000001c-0.21840000000000004-0.8-0.8-0.8-0.8-0.8h-3.2z m0.8 1.2000000000000002h1.6s0.42880000000000007 0 0.6000000000000001 0.8L12 8.8c0.17200000000000001 0.8016000000000001-0.8 0.8-0.8 0.8H8.8s-0.9720000000000001 0.0016-0.8-0.8l0.6000000000000001-2.8000000000000003c0.17120000000000002-0.8 0.6000000000000001-0.8 0.6000000000000001-0.8zM8 10.4a0.8 0.8 0 1 1 0 1.6 0.8 0.8 0 0 1 0-1.6z m1.4000000000000001 0h1.2000000000000002a0.2 0.2 0 1 1 0 0.4h-1.2000000000000002a0.2 0.2 0 1 1 0-0.4zM12 10.4a0.8 0.8 0 1 1 0 1.6 0.8 0.8 0 0 1 0-1.6z m-4.7 3.2L6.4 16h1.2000000000000002l0.30000000000000004-0.8h4.2l0.30000000000000004 0.8H13.6l-0.9-2.4000000000000004h-1.2000000000000002l0.30000000000000004 0.8h-3.6l0.30000000000000004-0.8h-1.2000000000000002z" fill="hsl(0, 0%, 10%)"/></g></svg>