<svg xmlns="http://www.w3.org/2000/svg" id="religious-shinto" width="16" height="16" viewBox="0 0 20 20"><g><path d="M0,0 H20 V20 H0 Z" fill="none"/><path d="M19.5,10c0,5.247-4.253,9.5-9.5,9.5S.5,15.247,.5,10,4.753,.5,10,.5s9.5,4.253,9.5,9.5Z" fill="hsl(0, 0%, 100%)" stroke="hsl(0, 0%, 10%)" stroke-linejoin="round" stroke-miterlimit="4px" stroke-width="1.2"/><path d="M14 6h-8a0.756 0.756 0 0 0-0.8 0.8 0.756 0.756 0 0 0 0.8 0.8H6.4V13.6a0.756 0.756 0 0 0 0.8 0.8 0.756 0.756 0 0 0 0.8-0.8V10.4h4v3.2a0.756 0.756 0 0 0 0.8 0.8 0.756 0.756 0 0 0 0.8-0.8V7.6h0.4a0.756 0.756 0 0 0 0.8-0.8 0.756 0.756 0 0 0-0.8-0.8zM12 8.8H10.4V7.6h1.6zM9.6 8.8H8V7.6h1.6z" fill="hsl(0, 0%, 10%)"/></g></svg>