<svg xmlns="http://www.w3.org/2000/svg" id="suitcase" width="16" height="16" viewBox="0 0 20 20"><g><path d="M0,0 H20 V20 H0 Z" fill="none"/><path d="M19.5,10c0,5.247-4.253,9.5-9.5,9.5S.5,15.247,.5,10,4.753,.5,10,.5s9.5,4.253,9.5,9.5Z" fill="hsl(0, 0%, 100%)" stroke="hsl(0, 0%, 10%)" stroke-linejoin="round" stroke-miterlimit="4px" stroke-width="1.2"/><path d="M7.6 7.200000000000001V5.6a0.8 0.8 0 0 1 0.8-0.8h3.2a0.8 0.8 0 0 1 0.8 0.8v1.6H13.6a0.8 0.8 0 0 1 0.8 0.8v4.800000000000001a0.8 0.8 0 0 1-0.8 0.8H6.4a0.8 0.8 0 0 1-0.8-0.8V8a0.8 0.8 0 0 1 0.8-0.8h1.2000000000000002z m0.8-1.6v1.6h3.2V5.6h-3.2z" fill="hsl(0, 0%, 10%)"/></g></svg>