<svg xmlns="http://www.w3.org/2000/svg" id="toilet" width="16" height="16" viewBox="0 0 20 20"><g><path d="M0,0 H20 V20 H0 Z" fill="none"/><path d="M19.5,10c0,5.247-4.253,9.5-9.5,9.5S.5,15.247,.5,10,4.753,.5,10,.5s9.5,4.253,9.5,9.5Z" fill="hsl(0, 0%, 100%)" stroke="hsl(0, 0%, 10%)" stroke-linejoin="round" stroke-miterlimit="4px" stroke-width="1.2"/><path d="M6.4 5.2a1.2000000000000002 1.2000000000000002 0 1 0 2.4000000000000004 0 1.2000000000000002 1.2000000000000002 0 0 0-2.4000000000000004 0zM13.200000000000001 4a1.2000000000000002 1.2000000000000002 0 1 1 0 2.4000000000000004 1.2000000000000002 1.2000000000000002 0 0 1 0-2.4000000000000004zM6.632 7.200000000000001a0.8 0.8 0 0 0-0.6944 0.4032L4.4528 10.2016a0.4 0.4 0 1 0 0.6944 0.39680000000000004l1.1296-1.9776A276.0384 276.0384 0 0 0 4.800000000000001 12.8h1.6v2a0.4 0.4 0 0 0 0.8 0V12.8h0.8v2a0.4 0.4 0 0 0 0.8 0V12.8h1.6L8.8824 8.549600000000002l1.1704 2.0488a0.4 0.4 0 1 0 0.6944-0.39680000000000004L9.2624 7.603199999999999A0.8 0.8 0 0 0 8.568000000000001 7.200000000000001H6.632zM11.200000000000001 7.6a0.4 0.4 0 0 1 0.4-0.4h3.2a0.4 0.4 0 0 1 0.4 0.4v4a0.4 0.4 0 0 1-0.8 0v3.2a0.4 0.4 0 0 1-0.8 0v-3.2h-0.8v3.2a0.4 0.4 0 0 1-0.8 0v-3.2a0.4 0.4 0 0 1-0.8 0v-4z" fill="hsl(0, 0%, 10%)"/></g></svg>