<svg xmlns="http://www.w3.org/2000/svg" id="toll" width="16" height="16" viewBox="0 0 20 20"><g><path d="M0,0 H20 V20 H0 Z" fill="none"/><path d="M19.5,10c0,5.247-4.253,9.5-9.5,9.5S.5,15.247,.5,10,4.753,.5,10,.5s9.5,4.253,9.5,9.5Z" fill="hsl(0, 0%, 100%)" stroke="hsl(0, 0%, 10%)" stroke-linejoin="round" stroke-miterlimit="4px" stroke-width="1.2"/><path d="M6 4.800000000000001a0.4 0.4 0 0 0-0.4 0.4V14.4h-0.4a0.4 0.4 0 0 0 0 0.8h5.6000000000000005a0.4 0.4 0 0 0 0-0.8H9.6v-2.3207999999999998l5.4208-3.6424000000000003a0.4 0.4 0 0 0 0.10880000000000001-0.5552l-0.22320000000000004-0.332a0.4 0.4 0 0 0-0.5544-0.10880000000000001L9.6 10.632V5.6h0.4a0.4 0.4 0 0 0 0-0.8h-4zM6.4 6.800000000000001a0.4 0.4 0 0 1 0.4-0.4h1.6a0.4 0.4 0 0 1 0.4 0.4v3.2a0.4 0.4 0 0 1-0.4 0.4h-1.6a0.4 0.4 0 0 1-0.4-0.4v-3.2z" fill="hsl(0, 0%, 10%)"/></g></svg>