<svg xmlns="http://www.w3.org/2000/svg" id="viewpoint" width="16" height="16" viewBox="0 0 20 20"><g><path d="M0,0 H20 V20 H0 Z" fill="none"/><path d="M19.5,10c0,5.247-4.253,9.5-9.5,9.5S.5,15.247,.5,10,4.753,.5,10,.5s9.5,4.253,9.5,9.5Z" fill="hsl(0, 0%, 100%)" stroke="hsl(0, 0%, 10%)" stroke-linejoin="round" stroke-miterlimit="4px" stroke-width="1.2"/><path d="M8.816 10.74a1.9088000000000003 1.9088000000000003 0 0 0-0.36800000000000005 0.35200000000000004l-3.64-2.8000000000000003a6.3984000000000005 6.3984000000000005 0 0 1 1.2080000000000002-1.2080000000000002z m5.168-3.6479999999999997l-2.8000000000000003 3.64a1.9176 1.9176 0 0 1 0.36000000000000004 0.36000000000000004l3.6479999999999997-2.8000000000000003a6.356000000000001 6.356000000000001 0 0 0-1.2080000000000002-1.2000000000000002z m-4.1408000000000005 4.9184a1.2000000000000002 1.2000000000000002 0 1 0 1.3464 1.0328 1.2000000000000002 1.2000000000000002 0 0 0-1.3464-1.0328zM9.144 5.788a6.3464 6.3464 0 0 0-1.6480000000000001 0.44000000000000006l1.7600000000000002 4.256a1.6352000000000002 1.6352000000000002 0 0 1 0.488-0.136z m1.7120000000000002 0.008l-0.6000000000000001 4.5520000000000005a1.9920000000000002 1.9920000000000002 0 0 1 0.488 0.128l1.7600000000000002-4.24a5.7704 5.7704 0 0 0-1.6480000000000001-0.44000000000000006z" fill="hsl(0, 0%, 10%)"/></g></svg>