<svg width="136" height="136" viewBox="0 0 136 136" fill="none" xmlns="http://www.w3.org/2000/svg">
<path d="M92.692 9.83192C94.9996 7.52427 98.741 7.52428 101.049 9.83192V9.83192C103.356 12.1396 103.356 15.881 101.049 18.1886L83.2976 35.9397L74.9409 27.583L92.692 9.83192Z" fill="#1ED500"/>
<path d="M117.569 34.7092C119.877 32.4016 123.618 32.4016 125.926 34.7092V34.7092C128.234 37.0169 128.234 40.7583 125.926 43.0659L108.175 60.817L99.8182 52.4603L117.569 34.7092Z" fill="#1ED500"/>
<path d="M81.3159 97.5821C75.4581 103.44 65.9606 103.44 60.1027 97.5821L37.4753 74.9547C31.6175 69.0968 31.6175 59.5993 37.4753 53.7415L69.4458 21.771L113.286 65.6116L81.3159 97.5821Z" fill="#1ED500"/>
<path d="M33.234 113.137C30.1098 116.261 25.0445 116.261 21.9203 113.137V113.137C18.7961 110.013 18.7961 104.948 21.9203 101.823L43.1335 80.6102L54.4472 91.9239L33.234 113.137Z" fill="#1ED500"/>
</svg>
