<svg width="172" height="171" viewBox="0 0 172 171" fill="none" xmlns="http://www.w3.org/2000/svg">
<path d="M115.492 31.8496C117.8 29.542 121.541 29.542 123.849 31.8497V31.8497C126.156 34.1573 126.156 37.8987 123.849 40.2064L106.098 57.9574L97.7408 49.6007L115.492 31.8496Z" fill="#D50000"/>
<path d="M140.369 56.7269C142.677 54.4193 146.418 54.4193 148.726 56.7269V56.7269C151.034 59.0346 151.034 62.776 148.726 65.0837L130.975 82.8347L122.618 74.478L140.369 56.7269Z" fill="#D50000"/>
<path d="M104.116 119.6C98.258 125.458 88.7605 125.458 82.9026 119.6L60.2752 96.9724C54.4173 91.1145 54.4173 81.617 60.2752 75.7592L92.2457 43.7887L136.086 87.6293L104.116 119.6Z" fill="#D50000"/>
<path d="M56.0306 135.152C52.9064 138.276 47.8411 138.276 44.7169 135.152V135.152C41.5927 132.027 41.5927 126.962 44.7169 123.838L65.9301 102.625L77.2438 113.938L56.0306 135.152Z" fill="#D50000"/>
<rect x="84.0485" y="8.13867" width="16.0891" height="143.101" fill="#2E2E2E"/>
</svg>
