<svg width="474" height="446" viewBox="0 0 474 446" fill="none" xmlns="http://www.w3.org/2000/svg">
<path d="M237 38.4289L359 123.997V334H115V123.997L237 38.4289Z" stroke="#0036C1" stroke-width="40"/>
<rect x="41" width="54" height="446" fill="#D9D9D9"/>
<rect width="41" height="101" fill="#919191"/>
<rect y="9" width="41" height="14" fill="#6B6B6B"/>
<rect y="9" width="41" height="14" fill="#6B6B6B"/>
<rect y="32" width="41" height="14" fill="#6B6B6B"/>
<rect y="32" width="41" height="14" fill="#6B6B6B"/>
<rect y="55" width="41" height="14" fill="#6B6B6B"/>
<rect y="55" width="41" height="14" fill="#6B6B6B"/>
<rect y="78" width="41" height="14" fill="#6B6B6B"/>
<rect y="78" width="41" height="14" fill="#6B6B6B"/>
<rect y="345" width="41" height="101" fill="#919191"/>
<rect y="354" width="41" height="14" fill="#6B6B6B"/>
<rect y="354" width="41" height="14" fill="#6B6B6B"/>
<rect y="377" width="41" height="14" fill="#6B6B6B"/>
<rect y="377" width="41" height="14" fill="#6B6B6B"/>
<rect y="400" width="41" height="14" fill="#6B6B6B"/>
<rect y="400" width="41" height="14" fill="#6B6B6B"/>
<rect y="423" width="41" height="14" fill="#6B6B6B"/>
<rect y="423" width="41" height="14" fill="#6B6B6B"/>
<rect width="54" height="446" transform="matrix(-1 0 0 1 433 0)" fill="#D9D9D9"/>
<rect width="41" height="101" transform="matrix(-1 0 0 1 474 0)" fill="#919191"/>
<rect width="41" height="14" transform="matrix(-1 0 0 1 474 9)" fill="#6B6B6B"/>
<rect width="41" height="14" transform="matrix(-1 0 0 1 474 9)" fill="#6B6B6B"/>
<rect width="41" height="14" transform="matrix(-1 0 0 1 474 32)" fill="#6B6B6B"/>
<rect width="41" height="14" transform="matrix(-1 0 0 1 474 32)" fill="#6B6B6B"/>
<rect width="41" height="14" transform="matrix(-1 0 0 1 474 55)" fill="#6B6B6B"/>
<rect width="41" height="14" transform="matrix(-1 0 0 1 474 55)" fill="#6B6B6B"/>
<rect width="41" height="14" transform="matrix(-1 0 0 1 474 78)" fill="#6B6B6B"/>
<rect width="41" height="14" transform="matrix(-1 0 0 1 474 78)" fill="#6B6B6B"/>
<rect width="41" height="101" transform="matrix(-1 0 0 1 474 345)" fill="#919191"/>
<rect width="41" height="14" transform="matrix(-1 0 0 1 474 354)" fill="#6B6B6B"/>
<rect width="41" height="14" transform="matrix(-1 0 0 1 474 354)" fill="#6B6B6B"/>
<rect width="41" height="14" transform="matrix(-1 0 0 1 474 377)" fill="#6B6B6B"/>
<rect width="41" height="14" transform="matrix(-1 0 0 1 474 377)" fill="#6B6B6B"/>
<rect width="41" height="14" transform="matrix(-1 0 0 1 474 400)" fill="#6B6B6B"/>
<rect width="41" height="14" transform="matrix(-1 0 0 1 474 400)" fill="#6B6B6B"/>
<rect width="41" height="14" transform="matrix(-1 0 0 1 474 423)" fill="#6B6B6B"/>
<rect width="41" height="14" transform="matrix(-1 0 0 1 474 423)" fill="#6B6B6B"/>
</svg>
