<svg width="501" height="500" viewBox="0 0 501 500" fill="none" xmlns="http://www.w3.org/2000/svg">
<rect x="140" y="303" width="55" height="55" rx="27.5" fill="#D9D9D9"/>
<rect x="195" y="303" width="55" height="55" rx="27.5" fill="#D9D9D9"/>
<rect x="306" y="303" width="55" height="55" rx="27.5" fill="#D9D9D9"/>
<rect x="251" y="303" width="55" height="55" rx="27.5" fill="#D9D9D9"/>
<path d="M313.5 331C313.5 320.23 322.23 311.5 333 311.5C343.77 311.5 352.5 320.23 352.5 331C352.5 341.77 343.77 350.5 333 350.5C322.23 350.5 313.5 341.77 313.5 331Z" fill="#938787" stroke="black"/>
<path d="M257.5 331C257.5 320.23 266.23 311.5 277 311.5C287.77 311.5 296.5 320.23 296.5 331C296.5 341.77 287.77 350.5 277 350.5C266.23 350.5 257.5 341.77 257.5 331Z" fill="#938787" stroke="black"/>
<path d="M202.5 331C202.5 320.23 211.23 311.5 222 311.5C232.77 311.5 241.5 320.23 241.5 331C241.5 341.77 232.77 350.5 222 350.5C211.23 350.5 202.5 341.77 202.5 331Z" fill="#938787" stroke="black"/>
<path d="M148.5 331C148.5 320.23 157.23 311.5 168 311.5C178.77 311.5 187.5 320.23 187.5 331C187.5 341.77 178.77 350.5 168 350.5C157.23 350.5 148.5 341.77 148.5 331Z" fill="#938787" stroke="black"/>
<rect x="189" y="206.22" width="7.18663" height="41.2675" transform="rotate(-35.9595 189 206.22)" fill="black"/>
<rect x="189" y="206.22" width="7.18663" height="41.2675" transform="rotate(-35.9595 189 206.22)" fill="black"/>
<rect x="184" y="202.22" width="7.18663" height="41.2675" transform="rotate(-35.9595 184 202.22)" fill="black"/>
<rect x="189" y="206.22" width="7.18663" height="41.2675" transform="rotate(-35.9595 189 206.22)" fill="black"/>
<rect x="209.423" y="166" width="7.18663" height="41.2675" transform="rotate(38.0293 209.423 166)" fill="black"/>
<rect x="213.423" y="168" width="7.18663" height="41.2675" transform="rotate(38.0293 213.423 168)" fill="black"/>
<rect x="155" y="318" width="25" height="25" rx="12.5" fill="#343131"/>
<rect x="155" y="318" width="25" height="25" rx="12.5" fill="#343131"/>
<rect x="155" y="318" width="25" height="25" rx="12.5" fill="#343131"/>
<rect x="321" y="318" width="25" height="25" rx="12.5" fill="#343131"/>
<rect x="321" y="318" width="25" height="25" rx="12.5" fill="#343131"/>
<rect x="321" y="318" width="25" height="25" rx="12.5" fill="#343131"/>
<rect x="210" y="318" width="25" height="25" rx="12.5" fill="#343131"/>
<rect x="210" y="318" width="25" height="25" rx="12.5" fill="#343131"/>
<rect x="210" y="318" width="25" height="25" rx="12.5" fill="#343131"/>
<rect x="265" y="318" width="25" height="25" rx="12.5" fill="#343131"/>
<rect x="265" y="318" width="25" height="25" rx="12.5" fill="#343131"/>
<rect x="265" y="318" width="25" height="25" rx="12.5" fill="#343131"/>
<path d="M219.642 272.462C221.002 271.102 223.206 271.102 224.566 272.462C225.926 273.822 225.926 276.026 224.566 277.386L169.386 332.566C168.026 333.926 165.822 333.926 164.462 332.566C163.102 331.206 163.102 329.002 164.462 327.642L219.642 272.462Z" fill="#FFFEFE"/>
<path d="M275.462 277.386C274.102 276.026 274.102 273.822 275.462 272.462C276.822 271.102 279.026 271.102 280.386 272.462L335.566 327.642C336.926 329.002 336.926 331.206 335.566 332.566C334.206 333.926 332.002 333.926 330.642 332.566L275.462 277.386Z" fill="#FFFEFE"/>
<path d="M193 305.924L197.924 301L224.884 327.96C226.243 329.319 226.243 331.524 224.884 332.884C223.524 334.243 221.319 334.243 219.96 332.884L193 305.924Z" fill="#FFFEFE"/>
<path d="M304.94 299L309.864 303.924L280.386 333.402C279.026 334.762 276.822 334.762 275.462 333.402C274.102 332.043 274.102 329.838 275.462 328.479L304.94 299Z" fill="#FFFEFE"/>
<path d="M247.5 233C247.5 228.306 251.306 224.5 256 224.5H348C352.694 224.5 356.5 228.306 356.5 233V276C356.5 280.694 352.694 284.5 348 284.5H256C251.306 284.5 247.5 280.694 247.5 276V233Z" fill="white" stroke="black" stroke-width="3"/>
<path d="M161.5 233C161.5 228.306 165.306 224.5 170 224.5H236C240.694 224.5 244.5 228.306 244.5 233V276C244.5 280.694 240.694 284.5 236 284.5H170C165.306 284.5 161.5 280.694 161.5 276V233Z" fill="#CDCDCD" stroke="black" stroke-width="3"/>
<rect x="205.5" y="270.5" width="21" height="21" rx="10.5" fill="#FCFCFC" stroke="black"/>
<rect x="277.5" y="270.5" width="21" height="21" rx="10.5" fill="#FCFCFC" stroke="black"/>
<rect x="174" y="155" width="64" height="24" rx="6" fill="#151313"/>
<rect x="180" y="162" width="10" height="10" rx="5" fill="#3D3B3B"/>
<rect x="223" y="162" width="10" height="10" rx="5" fill="#726F6F"/>
<rect x="223" y="162" width="10" height="10" rx="5" fill="#3D3B3B"/>
<rect x="181" y="163" width="8" height="8" rx="4" fill="#868080"/>
<rect x="224" y="163" width="8" height="8" rx="4" fill="#868080"/>
<rect x="182" y="164" width="6" height="6" rx="3" fill="#FFFEFE"/>
<rect x="225" y="164" width="6" height="6" rx="3" fill="#FFFEFE"/>
<rect x="183.5" y="196.5" width="7" height="7" rx="3.5" fill="#FFFEFE" stroke="black"/>
<rect x="187.5" y="199.5" width="7" height="7" rx="3.5" fill="#FFFEFE" stroke="black"/>
<rect width="0.526441" height="6.57102" transform="matrix(0.617368 -0.786675 -0.786675 -0.617368 194.169 201.471)" fill="black"/>
<rect width="0.526441" height="6.57102" transform="matrix(0.617368 -0.786675 -0.786675 -0.617368 189.169 206.471)" fill="black"/>
<path d="M283.303 218L309 178.578L334.697 218H283.303Z" fill="#635B5B" stroke="black" stroke-width="5"/>
<rect x="270.5" y="221.5" width="81" height="3" fill="#635B5B" stroke="black" stroke-width="3"/>
<mask id="path-40-inside-1_0_1" fill="white">
<path d="M305.44 152.973C298.516 158.534 294.626 166.078 294.626 173.943C294.626 181.808 298.516 189.352 305.44 194.913C312.363 200.475 321.754 203.599 331.545 203.599C341.336 203.599 350.727 200.475 357.65 194.913L331.545 173.943L305.44 152.973Z"/>
</mask>
<path d="M305.44 152.973C298.516 158.534 294.626 166.078 294.626 173.943C294.626 181.808 298.516 189.352 305.44 194.913C312.363 200.475 321.754 203.599 331.545 203.599C341.336 203.599 350.727 200.475 357.65 194.913L331.545 173.943L305.44 152.973Z" fill="#B4B1B1" stroke="black" stroke-width="10" mask="url(#path-40-inside-1_0_1)"/>
<rect y="2.37663" width="72.0787" height="3.79496" transform="matrix(0.779615 0.626259 -0.779615 0.626259 308.398 146.628)" fill="#B4B1B1" stroke="black" stroke-width="3.79496"/>
<path d="M328.483 165.552C329.637 164.625 331.202 164.104 332.834 164.104C334.465 164.104 336.031 164.625 337.184 165.552C338.338 166.479 338.987 167.736 338.987 169.047C338.987 170.358 338.338 171.615 337.184 172.542L332.834 169.047L328.483 165.552Z" fill="#B4B1B1"/>
<path d="M335.453 154.201V154.201C344.582 154.676 351.884 160.599 352.542 167.928V167.928" stroke="#363333" stroke-width="5"/>
<path d="M341.558 134.984V134.984C357.543 140.172 370.245 150.322 376.787 163.135L376.916 163.388" stroke="#363333" stroke-width="5"/>
<path d="M337.536 144.012V144.012C350.977 147.318 361.523 155.738 365.721 166.515L365.799 166.715" stroke="#363333" stroke-width="5"/>
</svg>
